<svg width="64" height="64" viewBox="0 0 64 64" fill="none" xmlns="http://www.w3.org/2000/svg">
<path d="M58.7563 55.04H37.1657C37.0879 55.04 37.0141 55.0313 36.9414 55.0149C36.5156 54.9771 36.0862 54.874 35.6669 54.7055C34.2382 54.1281 33.2798 52.6626 33.2798 51.0576V28.677C33.2811 26.9801 34.6804 25.6001 36.3971 25.6001H55.2973C57.0166 25.6001 58.4148 26.9801 58.4148 28.677C58.4148 28.6933 58.4148 28.7097 58.4134 28.726V49.1216H61.7499C62.2852 49.1216 62.7198 49.5506 62.7198 50.0789C62.7198 52.1016 61.1765 55.04 58.7563 55.04ZM40.7405 53.1255H58.7563C59.5222 53.1255 60.2983 52.0915 60.6221 51.0361L41.328 51.0575C41.328 51.7996 41.1203 52.5116 40.7405 53.1255ZM36.3971 27.5147C35.7484 27.5147 35.2208 28.0368 35.2196 28.6782V50.9719C35.2196 51.894 35.6937 52.6475 36.3998 52.9331C37.3823 53.3243 38.114 52.9985 38.4643 52.7669C39.043 52.3833 39.3883 51.7444 39.3883 51.0576V50.0789C39.3883 49.5506 39.8229 49.1216 40.3582 49.1216H56.4738V28.6418C56.4558 28.0179 55.9346 27.5147 55.2973 27.5147H36.3971Z" fill="#252526"/>
<path d="M22.339 48.64H10.2763C9.75001 48.64 9.32274 48.2101 9.32274 47.6806C9.32274 47.1509 9.75001 46.7211 10.2763 46.7211H15.6367C17.6052 46.7211 18.9271 45.2688 18.9271 43.1081C18.9271 42.5785 19.3543 42.1486 19.8806 42.1486C20.407 42.1486 20.8342 42.5785 20.8342 43.1081C20.8342 44.5377 20.4219 45.7794 19.7015 46.7211H22.3391C22.8655 46.7211 23.2927 47.1509 23.2927 47.6806C23.2927 48.2101 22.8653 48.64 22.339 48.64ZM30.7417 40.549H7.35566C4.00516 40.549 1.27979 37.8069 1.27979 34.4358V15.0731C1.27979 11.702 4.00503 8.95996 7.35566 8.95996H40.0039C43.3544 8.95996 46.0798 11.7019 46.0798 15.0731V22.5274C46.0798 23.057 45.6525 23.4868 45.1262 23.4868C44.5999 23.4868 44.1726 23.057 44.1726 22.5274V15.0731C44.1726 12.761 42.3019 10.8788 40.0039 10.8788H7.35566C5.05767 10.8788 3.18695 12.761 3.18695 15.0731V34.4358C3.18695 36.7479 5.05767 38.6301 7.35566 38.6301H30.7417C31.268 38.6301 31.6953 39.0599 31.6953 39.5895C31.6953 40.119 31.268 40.549 30.7417 40.549ZM20.115 35.5868C14.1295 35.5868 9.25897 30.6866 9.25897 24.6643C9.25897 18.6421 14.1295 13.7418 20.115 13.7418C26.1005 13.7418 30.9709 18.6421 30.9709 24.6643C30.9709 30.6866 26.1005 35.5868 20.115 35.5868ZM14.9613 32.0216C16.4199 33.0579 18.1979 33.6681 20.115 33.6681C25.0493 33.6681 29.0639 29.6289 29.0639 24.6643C29.0639 19.6998 25.0493 15.6605 20.115 15.6605C15.1806 15.6605 11.166 19.6998 11.166 24.6643C11.166 26.9927 12.0494 29.1183 13.4966 30.7182C14.7671 28.5913 17.203 27.2375 19.9382 27.2375C21.6073 27.2375 23.181 27.7367 24.4893 28.6809C24.9165 28.9899 25.0156 29.5886 24.7085 30.0198C24.4014 30.4496 23.8077 30.5481 23.3766 30.2403C22.3954 29.5306 21.2063 29.1563 19.9382 29.1563C17.7831 29.1563 15.8258 30.3084 14.9613 32.0216ZM20.115 26.2881C17.7694 26.2881 15.861 24.3681 15.861 22.0067C15.861 19.6468 17.7694 17.7268 20.115 17.7268C22.4606 17.7268 24.3688 19.6468 24.3688 22.0067C24.3688 24.3681 22.4606 26.2881 20.115 26.2881ZM20.115 19.6455C18.8205 19.6455 17.7681 20.7045 17.7681 22.0067C17.7681 23.3091 18.8205 24.3694 20.115 24.3694C21.4093 24.3694 22.4619 23.3091 22.4619 22.0067C22.4619 20.7045 21.4093 19.6455 20.115 19.6455Z" fill="url(#paint0_linear_120_491)"/>
<defs>
<linearGradient id="paint0_linear_120_491" x1="12.3947" y1="5.08845" x2="33.8838" y2="42.0823" gradientUnits="userSpaceOnUse">
<stop stop-color="#FF4800"/>
<stop offset="0.5" stop-color="#DA54D8"/>
<stop offset="1" stop-color="#0092F4"/>
</linearGradient>
</defs>
</svg>
