<svg width="50" height="50" viewBox="0 0 50 50" fill="none" xmlns="http://www.w3.org/2000/svg">
<path d="M43.1 43.46C42.69 43.46 42.35 43.12 42.35 42.71C42.35 42.3 42.69 41.96 43.1 41.96C44.86 41.96 46.28 40.53 46.28 38.78V23.54H29.21C28.8 23.54 28.46 23.2 28.46 22.79C28.46 22.38 28.8 22.04 29.21 22.04H46.28V16H29.21C28.8 16 28.46 15.66 28.46 15.25C28.46 14.84 28.8 14.5 29.21 14.5H46.28V9.14H3.5V38.78C3.5 40.54 4.93 41.96 6.68 41.96C7.09 41.96 7.43 42.3 7.43 42.71C7.43 43.12 7.09 43.46 6.68 43.46C4.1 43.46 2 41.36 2 38.78V8.42C2 8.42 2 8.4 2 8.39C2 8.38 2 8.37 2 8.36V5.68C2 3.1 4.1 1 6.69 1H43.11C45.69 1 47.79 3.1 47.79 5.69V38.78C47.79 41.36 45.69 43.46 43.11 43.46H43.1ZM3.5 7.64H46.29V5.68C46.29 3.92 44.86 2.49 43.11 2.49H6.69C4.93 2.49 3.51 3.92 3.51 5.68V7.64H3.5ZM13.82 32.39C11.57 32.39 9.75 30.56 9.75 28.32C9.75 26.08 11.58 24.25 13.82 24.25C16.06 24.25 17.89 26.08 17.89 28.32C17.89 30.56 16.06 32.39 13.82 32.39ZM13.82 25.75C12.4 25.75 11.25 26.9 11.25 28.32C11.25 29.74 12.4 30.89 13.82 30.89C15.24 30.89 16.39 29.74 16.39 28.32C16.39 26.9 15.24 25.75 13.82 25.75ZM13.82 21.32C11.57 21.32 9.75 19.49 9.75 17.25C9.75 15.01 11.58 13.18 13.82 13.18C16.06 13.18 17.89 15.01 17.89 17.25C17.89 19.49 16.06 21.32 13.82 21.32ZM13.82 14.68C12.4 14.68 11.25 15.83 11.25 17.25C11.25 18.67 12.4 19.82 13.82 19.82C15.24 19.82 16.39 18.67 16.39 17.25C16.39 15.83 15.24 14.68 13.82 14.68Z" fill="url(#paint0_linear_1439_231)"/>
<path fill-rule="evenodd" clip-rule="evenodd" d="M16.04 49H33.75C37.22 49 40.04 46.18 40.04 42.71C40.04 39.24 37.22 36.42 33.75 36.42H16.04C12.57 36.42 9.75 39.24 9.75 42.71C9.75 46.18 12.57 49 16.04 49ZM11.25 42.72C11.25 40.08 13.4 37.93 16.04 37.93H33.75C36.39 37.93 38.54 40.08 38.54 42.72C38.54 45.36 36.39 47.51 33.75 47.51H16.04C13.4 47.51 11.25 45.36 11.25 42.72ZM17.89 42.25H31.89V43.75H17.89V42.25Z" fill="#252526"/>
<defs>
<linearGradient id="paint0_linear_1439_231" x1="10.83" y1="-2.12" x2="38.95" y2="46.58" gradientUnits="userSpaceOnUse">
<stop stop-color="#FF4800"/>
<stop offset="0.5" stop-color="#DA54D8"/>
<stop offset="1" stop-color="#0092F4"/>
</linearGradient>
</defs>
</svg>
