<svg width="50" height="50" viewBox="0 0 50 50" fill="none" xmlns="http://www.w3.org/2000/svg">
<path d="M45.8976 40.6343C45.6508 41.544 44.9779 42.2796 44.0977 42.6021L27.9115 48.5292C27.0521 48.8438 26.1442 49 25.2382 49C24.0845 49 22.9317 48.7472 21.8801 48.2456L14.7802 44.8655C14.4006 44.6843 14.238 44.2284 14.4185 43.8473C14.5979 43.4671 15.0538 43.3038 15.4324 43.484L22.5323 46.8641C24.0439 47.5847 25.8131 47.6684 27.3901 47.092L43.5763 41.1649C43.9995 41.0106 44.3098 40.6702 44.4297 40.2323C44.5486 39.7914 44.4525 39.3365 44.164 38.9842C43.266 37.8883 41.8179 37.4702 40.4827 37.9102C36.8906 39.1026 34.5395 40.1289 34.5158 40.1398C34.4387 40.1734 34.3582 40.1836 34.2785 40.1905C33.7734 40.7336 32.7891 41.2595 30.8236 41.2595H22.6413C22.221 41.2595 21.8801 40.9171 21.8801 40.4951C21.8801 40.073 22.221 39.7307 22.6413 39.7307H30.8236C32.3431 39.7307 33.1528 39.3574 33.2807 38.9871C33.4066 38.6239 33.0081 37.8405 31.8346 36.9119C30.3082 35.7036 27.8837 34.9223 25.6595 34.9223H21.998C20.7174 34.9223 19.4239 34.5978 18.2573 33.9847C17.061 33.3557 15.932 32.849 14.9021 32.4788C14.5067 32.3366 14.3004 31.8986 14.4422 31.5014C14.5839 31.1033 15.0161 30.8943 15.4156 31.0396C16.5119 31.4337 17.7053 31.9692 18.963 32.6311C19.9125 33.1298 20.9622 33.3935 21.998 33.3935H25.6595C28.2048 33.3935 30.999 34.3032 32.7772 35.7116C34.1099 36.7664 34.6161 37.6757 34.765 38.3796C35.7649 37.9722 37.5865 37.2618 40.005 36.4591C41.9447 35.8151 44.0401 36.4252 45.3396 38.0128C45.9373 38.7423 46.1454 39.7227 45.8976 40.6345V40.6343ZM12.885 28.7561V43.7845C12.885 45.3043 11.654 46.5405 10.1414 46.5405H6.74359C5.23107 46.5405 4 45.3043 4 43.7845V28.7561C4 27.2362 5.23107 26 6.74359 26H10.1414C11.654 26 12.885 27.2362 12.885 28.7561ZM11.3626 28.7561C11.3626 28.0792 10.8145 27.5288 10.1414 27.5288H6.74359C6.07056 27.5288 5.52247 28.0792 5.52247 28.7561V43.7845C5.52247 44.4613 6.07056 45.0117 6.74359 45.0117H10.1414C10.8145 45.0117 11.3626 44.4613 11.3626 43.7845V28.7561Z" fill="url(#paint0_linear_421_682)"/>
<path d="M32.0016 10.3105C31.5875 10.3105 31.2515 9.97462 31.2515 9.56048C31.2515 9.18745 31.5241 8.87783 31.8815 8.82022C32.443 8.51059 34.3075 6.20281 34.6053 4.36675C34.7469 3.49068 34.4403 3.20646 34.3397 3.11275C34.0038 2.80223 32.9519 3.12345 32.4479 3.27876C32.2272 3.34617 32.0358 3.40277 31.8913 3.43308C30.9 3.7515 29.6899 3.37547 28.4115 2.97404C28.0111 2.84903 27.6018 2.72012 27.1887 2.61271C25.7345 2.19568 23.4931 2.90473 22.8104 3.98192C22.6747 4.19384 22.2645 4.84139 23.2402 5.95869C24.3321 7.20979 26.3849 8.71571 26.8675 8.81342C27.2816 8.81342 27.5941 9.14845 27.5941 9.56248C27.5941 9.97652 27.2347 10.3105 26.8207 10.3105C25.6692 10.3105 22.963 7.92165 22.1094 6.94507C20.62 5.23793 21.1161 3.85201 21.5439 3.17816C22.6739 1.39681 25.7152 0.635947 27.5835 1.16529C28.0025 1.2737 28.4361 1.40941 28.86 1.54232C29.905 1.86945 30.8924 2.18297 31.5117 1.98376C31.6963 1.94175 31.8408 1.89585 32.0078 1.84415C32.8985 1.57162 34.3889 1.11359 35.3597 2.01306C35.9896 2.59711 36.5639 3.7437 35.721 5.89128C35.0393 7.62972 33.1349 10.3105 32.0019 10.3105H32.0016Z" fill="#252526"/>
<path d="M42.1498 33.706C41.9613 33.706 41.7728 33.6357 41.6273 33.4941C41.3304 33.205 41.3236 32.7303 41.6117 32.4335C43.2993 30.6961 44.192 28.4644 44.192 25.9809C44.192 20.537 34.9354 11.801 31.8287 10.3067C31.2261 10.3008 28.7962 10.3057 27.0431 10.3096C22.0769 13.556 15.298 20.9804 15.298 25.9808C15.298 26.3949 14.9621 26.7308 14.548 26.7308C14.1338 26.7308 13.7979 26.3949 13.7979 25.9808C13.7979 20.1912 21.2594 12.2228 26.4172 8.92857L26.6008 8.81136L26.8186 8.81036C30.3534 8.79996 32.1797 8.82013 32.2975 8.87087C35.4404 10.2509 45.6922 19.5377 45.6922 25.9807C45.6922 28.8627 44.6531 31.4557 42.6881 33.4784C42.5406 33.6298 42.3453 33.7059 42.1499 33.7059L42.1498 33.706Z" fill="#252526"/>
<g clip-path="url(#clip0_421_682)">
<path d="M29.5 29C30.2966 29 31.0872 28.8549 31.8309 28.5692L31.4606 27.6063C30.8348 27.8466 30.1697 27.9691 29.4985 27.9691C29.4274 27.9691 29.3549 27.9676 29.2823 27.9645C27.9445 27.9116 26.6733 27.3705 25.7088 26.4423C24.7444 25.5142 24.1519 24.2656 24.0476 22.9308L23.0197 23.0109C23.1466 24.6374 23.8767 26.1476 25.0755 27.2616C26.2062 28.3152 27.677 28.929 29.2219 28.9924C29.2476 28.9924 29.2733 28.994 29.3005 28.9955C29.3186 28.9955 29.3367 28.9955 29.3549 28.997C29.4033 28.997 29.4516 28.9985 29.5 28.9985V29Z" fill="url(#paint1_linear_421_682)"/>
<path d="M31.5422 28.672L31.2187 27.6924C32.0864 27.4037 32.8679 26.9034 33.4937 26.2352L34.2465 26.9396C33.5043 27.7333 32.5746 28.3288 31.5437 28.6705L31.5422 28.672Z" fill="url(#paint2_linear_421_682)"/>
<path d="M35.6614 24.5725C35.6614 24.5725 35.6659 24.5573 35.669 24.5513C35.8881 23.8907 36 23.1984 35.9985 22.5015C35.9985 22.2355 35.9819 21.9709 35.9501 21.7079L34.9267 21.8334C34.954 22.0556 34.9676 22.2793 34.9676 22.503C34.9676 23.2422 34.8194 23.9738 34.5277 24.6541C34.2374 25.3343 33.8112 25.948 33.276 26.4575L33.988 27.2027C34.7045 26.5179 35.2548 25.679 35.5994 24.7493C35.5994 24.7493 35.6009 24.7448 35.6024 24.7418C35.604 24.7372 35.6055 24.7312 35.607 24.7266C35.6251 24.6752 35.6433 24.6254 35.6599 24.574L35.6614 24.5725Z" fill="url(#paint3_linear_421_682)"/>
<path d="M34.9479 22.0133C34.8119 20.4729 34.0213 19.0535 32.7772 18.1208L33.3955 17.2955C34.8738 18.4035 35.8126 20.089 35.9743 21.9226L34.9464 22.0133H34.9479Z" fill="url(#paint4_linear_421_682)"/>
<path d="M32.9752 18.278C32.6442 18.0059 32.2829 17.7731 31.8974 17.5842L32.3509 16.6576C32.809 16.8813 33.2383 17.1579 33.6328 17.4829L32.9767 18.278H32.9752Z" fill="url(#paint5_linear_421_682)"/>
<path d="M29.5 15.9997C28.8092 15.9997 28.1214 16.1085 27.4654 16.3247H27.4623C27.3898 16.3504 27.3172 16.3761 27.2447 16.4033C27.2295 16.4093 27.2144 16.4154 27.1978 16.4199C27.1887 16.423 27.1781 16.4275 27.1691 16.4305C25.9416 16.9006 24.885 17.7335 24.1413 18.8174C23.3961 19.9012 22.9985 21.1846 23 22.4997C23 22.5738 23 22.6478 23.003 22.7204C23.0091 22.9109 23.0242 23.1043 23.0469 23.2933L24.0702 23.1678C24.0506 23.0091 24.0385 22.8459 24.0324 22.6856C24.0309 22.6237 24.0294 22.5617 24.0294 22.4982C24.0279 21.3871 24.365 20.3033 24.9954 19.3888C25.6257 18.4742 26.5206 17.7743 27.5606 17.3828C27.5742 17.3783 27.5863 17.3738 27.5999 17.3677C27.6604 17.345 27.7208 17.3239 27.7828 17.3027C28.3361 17.1198 28.915 17.0276 29.4985 17.0276C29.5514 17.0276 29.6058 17.0276 29.6587 17.0306L29.689 15.9997C29.6255 15.9982 29.5635 15.9967 29.5 15.9967V15.9997Z" fill="url(#paint6_linear_421_682)"/>
<path d="M32.0516 17.6628C31.314 17.2713 30.4947 17.0566 29.6602 17.034C29.6073 17.034 29.5544 17.0324 29.5 17.0309V16C29.5635 16 29.627 16 29.689 16.003C30.6821 16.0287 31.6556 16.2842 32.5338 16.7513L32.0516 17.6628Z" fill="url(#paint7_linear_421_682)"/>
</g>
<defs>
<linearGradient id="paint0_linear_421_682" x1="13.4382" y1="21.6933" x2="30.2454" y2="50.6832" gradientUnits="userSpaceOnUse">
<stop stop-color="#FF4800"/>
<stop offset="0.5" stop-color="#DA54D8"/>
<stop offset="1" stop-color="#0092F4"/>
</linearGradient>
<linearGradient id="paint1_linear_421_682" x1="25.3733" y1="25.6502" x2="31.1159" y2="28.2774" gradientUnits="userSpaceOnUse">
<stop stop-color="#FF4800"/>
<stop offset="0.07" stop-color="#FB491A"/>
<stop offset="0.24" stop-color="#F04D59"/>
<stop offset="0.41" stop-color="#E74F8B"/>
<stop offset="0.55" stop-color="#E151B0"/>
<stop offset="0.66" stop-color="#DD53C6"/>
<stop offset="0.73" stop-color="#DC53CE"/>
<stop offset="0.81" stop-color="#CA58D3"/>
<stop offset="0.95" stop-color="#9C65DE"/>
<stop offset="0.98" stop-color="#9268E1"/>
</linearGradient>
<linearGradient id="paint2_linear_421_682" x1="31.7463" y1="28.3787" x2="33.4816" y2="26.5103" gradientUnits="userSpaceOnUse">
<stop stop-color="#9268E1"/>
<stop offset="1" stop-color="#1E8AF0"/>
</linearGradient>
<linearGradient id="paint3_linear_421_682" x1="36.3809" y1="23.413" x2="33.0644" y2="25.3162" gradientUnits="userSpaceOnUse">
<stop stop-color="#20DB88"/>
<stop offset="1" stop-color="#1E8AF0"/>
</linearGradient>
<linearGradient id="paint4_linear_421_682" x1="32.9677" y1="18.6998" x2="35.9985" y2="21.1002" gradientUnits="userSpaceOnUse">
<stop stop-color="#B7DA1D"/>
<stop offset="0.13" stop-color="#ABDA25"/>
<stop offset="0.37" stop-color="#8BDA3C"/>
<stop offset="0.69" stop-color="#58DB60"/>
<stop offset="1" stop-color="#20DB88"/>
</linearGradient>
<linearGradient id="paint5_linear_421_682" x1="32.2013" y1="17.0687" x2="33.2776" y2="17.9576" gradientUnits="userSpaceOnUse">
<stop offset="0.15" stop-color="#DCD904"/>
<stop offset="1" stop-color="#B7DA1D"/>
</linearGradient>
<linearGradient id="paint6_linear_421_682" x1="24.4361" y1="19.7833" x2="29.6542" y2="19.3661" gradientUnits="userSpaceOnUse">
<stop stop-color="#FF4800"/>
<stop offset="0.24" stop-color="#FE4B00"/>
<stop offset="0.41" stop-color="#FC5400"/>
<stop offset="0.55" stop-color="#F96301"/>
<stop offset="0.66" stop-color="#F57501"/>
<stop offset="0.78" stop-color="#F28101"/>
<stop offset="0.99" stop-color="#EBA201"/>
<stop offset="1" stop-color="#EBA301"/>
</linearGradient>
<linearGradient id="paint7_linear_421_682" x1="29.7434" y1="16.1451" x2="32.1438" y2="17.5509" gradientUnits="userSpaceOnUse">
<stop offset="0.06" stop-color="#EBA301"/>
<stop offset="0.27" stop-color="#E8AE01"/>
<stop offset="0.46" stop-color="#E5BD01"/>
<stop offset="0.88" stop-color="#DCD904"/>
</linearGradient>
<clipPath id="clip0_421_682">
<rect width="13" height="13" fill="white" transform="translate(23 16)"/>
</clipPath>
</defs>
</svg>
