<svg width="50" height="50" viewBox="0 0 50 50" fill="none" xmlns="http://www.w3.org/2000/svg">
<path d="M3.56711 44.0198C3.15301 44.0198 2.81711 43.6839 2.81711 43.2698C2.81711 33.3186 8.64131 23.2766 21.654 23.2766C26.1579 23.2766 30.0329 24.4905 33.1726 26.885C33.5017 27.137 33.5652 27.6067 33.3142 27.9368C33.0642 28.2649 32.5925 28.3304 32.2624 28.0784C29.3903 25.887 25.821 24.7766 21.654 24.7766C9.67741 24.7766 4.31711 34.0647 4.31711 43.2698C4.31711 43.6839 3.98121 44.0198 3.56711 44.0198ZM21.654 19.7132C16.4929 19.7132 12.2946 15.515 12.2946 10.3548C12.2946 5.19461 16.4928 0.995407 21.654 0.995407C26.8152 0.995407 31.0124 5.19361 31.0124 10.3548C31.0124 15.516 26.8142 19.7132 21.654 19.7132ZM21.654 2.49541C17.32 2.49541 13.7946 6.02081 13.7946 10.3548C13.7946 14.6888 17.32 18.2132 21.654 18.2132C25.988 18.2132 29.5124 14.6878 29.5124 10.3548C29.5124 6.02181 25.987 2.49541 21.654 2.49541Z" fill="url(#paint0_linear_421_743)"/>
<path d="M38.6374 49.0052C38.3063 49.0052 37.9763 48.93 37.6677 48.7806C35.8913 47.9183 30.0925 44.5736 30.0925 37.7552V33.3636C30.0925 32.3812 30.7224 31.5247 31.6589 31.2308L37.9694 29.2552C38.4059 29.1195 38.8678 29.1175 39.3063 29.2552L45.6159 31.2308C46.5534 31.5247 47.1833 32.3822 47.1833 33.3636V37.7552C47.1833 44.5755 41.3835 47.9183 39.6062 48.7806C39.2986 48.93 38.9685 49.0052 38.6374 49.0052ZM38.6374 30.6527C38.5642 30.6527 38.4899 30.6644 38.4186 30.6869H38.4176L32.1071 32.6625C31.7995 32.7592 31.5925 33.0404 31.5925 33.3637V37.7553C31.5925 43.5395 36.2995 46.4487 38.323 47.4311C38.5251 47.5288 38.7527 47.5288 38.9509 47.4311C40.9753 46.4497 45.6833 43.5415 45.6833 37.7553V33.3637C45.6833 33.0414 45.4763 32.7592 45.1677 32.6625L38.8581 30.6869C38.7858 30.6644 38.7116 30.6527 38.6374 30.6527Z" fill="#252526"/>
<path d="M38.0055 41.7181C37.8385 41.7181 37.6705 41.6624 37.5319 41.5492L35.5651 39.9447C35.2438 39.683 35.196 39.2103 35.4577 38.89C35.7204 38.5668 36.194 38.5228 36.5124 38.7826L37.9235 39.933L41.4186 36.0141C41.695 35.7055 42.1696 35.6772 42.4772 35.9536C42.7868 36.229 42.8131 36.7036 42.5377 37.0122L38.565 41.4673C38.4175 41.6333 38.2115 41.7183 38.0054 41.7183L38.0055 41.7181Z" fill="#252526"/>
<defs>
<linearGradient id="paint0_linear_421_743" x1="6.79311" y1="8.12941" x2="22.0292" y2="34.5192" gradientUnits="userSpaceOnUse">
<stop stop-color="#FF4800"/>
<stop offset="0.5" stop-color="#DA54D8"/>
<stop offset="1" stop-color="#0092F4"/>
</linearGradient>
</defs>
</svg>
