<svg width="50" height="50" viewBox="0 0 50 50" fill="none" xmlns="http://www.w3.org/2000/svg">
<path d="M5.74822 44.99C5.54861 44.99 5.35899 44.9102 5.21926 44.7705C5.03962 44.5908 4.95978 44.3313 5.01966 44.0818C5.01966 44.022 5.03962 43.9122 5.0496 43.7725C5.69832 37.4651 6.79614 33.513 8.30316 32.006C9.60059 30.7086 11.3172 30 13.1536 30C14.9899 30 16.7065 30.7086 17.994 32.006C19.2914 33.3034 20 35.02 20 36.8463C20 38.6727 19.2914 40.3992 17.994 41.6966C16.487 43.2036 12.5248 44.3014 6.21729 44.9501C6.06759 44.9701 5.96778 44.98 5.9079 44.98C5.858 44.99 5.79812 45 5.74822 45V44.99ZM13.1436 31.487C11.7164 31.487 10.3691 32.0459 9.36106 33.0539C8.67243 33.7425 7.40494 36.008 6.59654 43.3932C13.9819 42.5848 16.2474 41.3174 16.9361 40.6287C17.9441 39.6208 18.503 38.2735 18.503 36.8463C18.503 35.4192 17.9441 34.0719 16.9361 33.0639C15.9281 32.0559 14.5807 31.497 13.1536 31.497L13.1436 31.487Z" fill="#252526"/>
<path d="M31.5682 48.9903C31.5682 48.9903 31.4906 48.9903 31.4518 48.9903C31.2191 48.9515 31.0252 48.8061 30.9185 48.5928L26.1093 38.9368C25.9251 38.578 26.0803 38.1418 26.439 37.9673C26.7978 37.7831 27.2341 37.9382 27.4086 38.2969L31.7524 47.0223C34.7581 43.6775 36.5034 39.4021 36.6779 34.8746L36.93 30.2308C36.9494 29.8333 37.2694 29.5134 37.696 29.5425C38.0935 29.5618 38.4038 29.9109 38.3844 30.3083L38.1323 34.9425C37.9287 40.168 35.7859 45.0833 32.082 48.7867C31.9463 48.9224 31.7621 49 31.5682 49V48.9903ZM25.8863 36.2707C24.878 36.2707 23.8793 35.8829 23.1133 35.117L15.2984 27.3029C14.0573 26.0523 13.7955 24.1424 14.639 22.6397C18.9343 15.0002 26.439 6.81775 28.2134 5.04359C31.1997 2.06728 37.8123 1.49528 43.1257 1.03962L43.3875 1.02023C44.9292 0.884505 46.4126 1.43711 47.4889 2.51324C48.5651 3.58937 49.1081 5.08237 48.9821 6.61416L48.9627 6.80805C48.5167 12.1402 47.9543 18.7812 44.9486 21.7866C42.6215 24.123 34.2442 31.3069 28.1067 35.5823C27.4377 36.0574 26.662 36.2804 25.8863 36.2804V36.2707ZM16.3261 26.2753L24.1411 34.0893C24.9846 34.9328 26.3033 35.0588 27.2729 34.3802C33.3522 30.1532 41.6228 23.0566 43.9208 20.7492C46.5484 18.1219 47.1108 11.5101 47.518 6.67233L47.5374 6.47843C47.6343 5.38291 47.2368 4.30678 46.4611 3.5312C45.6854 2.75561 44.6092 2.35812 43.5136 2.45507L43.2518 2.47446C38.4426 2.89134 31.859 3.45364 29.2411 6.06155C27.6025 7.69998 20.0785 15.9212 15.9092 23.3475C15.3759 24.2782 15.5505 25.4803 16.3358 26.2656L16.3261 26.2753ZM11.4685 24.3848C11.3521 24.3848 11.2358 24.3557 11.1291 24.2975L1.38469 19.072C1.18107 18.9654 1.04533 18.7618 1.00654 18.5388C0.977457 18.3158 1.04533 18.0832 1.21016 17.9183C4.91401 14.2246 9.82985 12.0724 15.0657 11.8688L19.3707 11.6167C19.7779 11.5876 20.1172 11.8978 20.1366 12.305C20.156 12.7025 19.8555 13.0515 19.4579 13.0709L15.1432 13.323C10.5861 13.4975 6.31023 15.2426 2.95543 18.2674L11.8078 23.0178C12.1569 23.2117 12.2926 23.648 12.1084 24.0067C11.9727 24.2491 11.7303 24.3945 11.4685 24.3945V24.3848ZM35.9992 19.169C34.6709 19.169 33.3522 18.6648 32.3438 17.6566C30.3271 15.6401 30.3271 12.3632 32.3438 10.3467C34.3606 8.33014 37.6378 8.33014 39.6546 10.3467C41.6713 12.3632 41.6713 15.6401 39.6546 17.6566C38.6462 18.6648 37.3275 19.169 35.9992 19.169ZM35.9992 10.2885C35.049 10.2885 34.0988 10.6472 33.3716 11.3743C31.9269 12.8189 31.9269 15.1844 33.3716 16.6289C34.7775 18.0347 37.2209 18.0347 38.6268 16.6289C40.0715 15.1844 40.0715 12.8189 38.6268 11.3743C37.8996 10.6472 36.9494 10.2885 35.9992 10.2885Z" fill="url(#paint0_linear_1439_109)"/>
<defs>
<linearGradient id="paint0_linear_1439_109" x1="13.0024" y1="4.21946" x2="36.9966" y2="45.7811" gradientUnits="userSpaceOnUse">
<stop stop-color="#FF4800"/>
<stop offset="0.5" stop-color="#DA54D8"/>
<stop offset="1" stop-color="#0092F4"/>
</linearGradient>
</defs>
</svg>
