<svg width="65" height="64" viewBox="0 0 65 64" fill="none" xmlns="http://www.w3.org/2000/svg">
<g clip-path="url(#clip0_169_2311)">
<mask id="mask0_169_2311" style="mask-type:luminance" maskUnits="userSpaceOnUse" x="0" y="0" width="65" height="64">
<path d="M64.2799 0H0.439453V64H64.2799V0Z" fill="white"/>
</mask>
<g mask="url(#mask0_169_2311)">
<path d="M32.9715 56.4C44.782 56.4 54.358 46.8 54.358 34.96C54.358 23.12 44.782 13.52 32.9715 13.52C21.161 13.52 11.585 23.12 11.585 34.96C11.585 46.8 21.161 56.4 32.9715 56.4Z" fill="#EFEFEF"/>
<path d="M53.879 36.32C53.879 36.32 53.8736 36.32 53.8683 36.32C53.6768 36.32 53.5279 36.1546 53.5332 35.9626C53.5863 34.064 53.4267 32.224 53.0596 30.496C53.0224 30.3093 53.1394 30.1226 53.3257 30.0853C53.5065 30.0426 53.698 30.1653 53.7354 30.352C54.113 32.1333 54.278 34.0266 54.2194 35.9786C54.2194 36.1653 54.0598 36.3146 53.8736 36.3146L53.879 36.32Z" fill="#252526"/>
<path d="M49.1978 22.08C49.0968 22.08 48.9958 22.0373 48.9319 21.952C46.1494 18.5173 42.3031 16.0427 38.1055 14.976C36.7277 14.6027 35.3764 14.4 33.9719 14.3467C33.7804 14.3413 33.6315 14.1813 33.6421 13.9893C33.6474 13.7973 33.7858 13.648 33.9985 13.6533C35.4562 13.7067 36.8554 13.92 38.2758 14.304C42.617 15.4027 46.5911 17.968 49.4691 21.5147C49.5915 21.664 49.5649 21.8827 49.4213 22C49.3574 22.0533 49.2776 22.08 49.2032 22.08H49.1978Z" fill="#252526"/>
<path d="M13.1813 41.7867C12.8621 40.88 12.5961 39.92 12.4365 38.96L13.1813 41.7867Z" fill="white"/>
<path d="M13.181 42.1332C13.0374 42.1332 12.9044 42.0427 12.8565 41.9039C12.5054 40.9012 12.25 39.9307 12.0957 39.0187C12.0638 38.832 12.1915 38.6507 12.3777 38.6187C12.5639 38.5867 12.7448 38.7147 12.7767 38.9067C12.9203 39.7812 13.165 40.7147 13.5055 41.6747C13.5694 41.856 13.4736 42.0532 13.2927 42.1172C13.2555 42.1332 13.2182 42.1387 13.1757 42.1387L13.181 42.1332Z" fill="#252526"/>
<path d="M32.0137 56.2134C32.0137 56.2134 32.003 56.2134 31.9977 56.2134C30.7633 56.16 29.577 56 28.3693 55.7227C23.5973 54.672 19.2987 51.9574 16.2556 48.08C16.1386 47.9307 16.1652 47.712 16.3142 47.5947C16.4631 47.4774 16.6813 47.504 16.7983 47.6534C19.7403 51.408 23.9005 54.032 28.5184 55.0507C29.6835 55.3174 30.8326 55.472 32.0242 55.52C32.2157 55.5307 32.3648 55.6907 32.3541 55.8827C32.3434 56.0694 32.1945 56.2134 32.0082 56.2134H32.0137Z" fill="#252526"/>
<path d="M41.5898 51.2268C39.0361 52.6133 36.1102 53.3601 32.9713 53.3601C31.9072 53.3601 30.8433 53.2533 29.8324 53.0933C21.214 51.6001 14.6172 44.0801 14.6172 34.9601C14.6172 24.8268 22.81 16.5601 32.9713 16.5601C43.1326 16.5601 51.3254 24.7733 51.3254 34.9601C51.3254 37.0933 50.9531 39.1201 50.3147 41.0401" fill="white"/>
<path d="M32.9715 53.7067C31.9872 53.7067 30.9126 53.616 29.7794 53.4347C20.7939 51.8773 14.2715 44.1067 14.2715 34.96C14.2715 24.624 22.6612 16.2133 32.9715 16.2133C43.2817 16.2133 51.6713 24.624 51.6713 34.96C51.6713 37.0133 51.3256 39.0987 50.6445 41.152C50.586 41.3333 50.3892 41.4347 50.2084 41.3707C50.0274 41.312 49.9316 41.1147 49.9902 40.9333C50.6498 38.9547 50.985 36.944 50.985 34.9653C50.985 25.0133 42.9092 16.912 32.9767 16.912C23.0443 16.912 14.9684 25.0133 14.9684 34.9653C14.9684 43.776 21.246 51.2587 29.8964 52.7573C30.987 52.9333 32.0244 53.0187 32.9767 53.0187C36.0304 53.0187 38.8767 52.3147 41.4303 50.928C41.6004 50.8373 41.8079 50.9013 41.8984 51.0667C41.9889 51.2373 41.9251 51.4453 41.76 51.536C39.1001 52.9813 36.1475 53.712 32.9767 53.712L32.9715 53.7067Z" fill="#252526"/>
<path d="M22.709 49.4721C21.629 49.4721 20.5809 49.0401 19.7776 48.2348C18.7667 47.2214 18.3412 45.7973 18.6392 44.4268C19.8734 38.6081 22.7195 33.2214 26.8639 28.8481C31.1784 24.6881 36.5357 21.8348 42.3612 20.5868C43.723 20.2881 45.1435 20.7148 46.1542 21.7281C47.1651 22.7413 47.5906 24.1654 47.2928 25.5361C46.1171 31.3281 43.2868 36.7148 39.1213 41.1148C34.7482 45.2854 29.3749 48.1334 23.5654 49.3761C23.2781 49.4401 22.9856 49.4721 22.6983 49.4721H22.709ZM43.2337 21.1948C42.9943 21.1948 42.7547 21.2213 42.5153 21.2748C36.8123 22.4908 31.5721 25.2853 27.3639 29.3441C23.3155 33.6108 20.533 38.8853 19.32 44.5814C19.0701 45.7174 19.4265 46.9014 20.2724 47.7494C21.1183 48.5974 22.2993 48.9548 23.4325 48.7041C29.1143 47.4881 34.3757 44.6988 38.6425 40.6294C42.7123 36.3361 45.4786 31.0668 46.6278 25.3973C46.8779 24.2561 46.5213 23.0721 45.6754 22.2241C45.0105 21.5573 44.1327 21.1948 43.2337 21.1948Z" fill="#252526"/>
<path d="M63.1892 49.9468H40.5792C40.1535 49.9468 39.9408 49.3068 40.3131 49.04L50.8468 41.8933C51.5385 41.4133 52.4428 41.4133 53.1345 41.8933C55.6348 43.6 61.5933 47.6 63.4021 49.04C63.8278 49.3068 63.6149 49.9468 63.1892 49.9468Z" fill="white"/>
<path d="M59.6781 50.3733H44.3564V58.96H59.6781V50.3733Z" fill="white"/>
<path d="M43.1863 45.5466C43.0959 45.5466 43.0107 45.5146 42.9416 45.4453L19.7463 22.192C19.6132 22.0586 19.6132 21.8346 19.7463 21.7013C19.8793 21.568 20.1027 21.568 20.2357 21.7013L43.4311 44.9546C43.564 45.088 43.564 45.312 43.4311 45.4453C43.3618 45.5146 43.2768 45.5466 43.1863 45.5466Z" fill="#252526"/>
<path d="M52.7624 18.8267C50.1344 18.8267 48.001 16.6827 48.001 14.0534C48.001 11.424 50.1396 9.28003 52.7624 9.28003C55.3852 9.28003 57.5239 11.4187 57.5239 14.0534C57.5239 16.688 55.3852 18.8267 52.7624 18.8267ZM52.7624 9.97337C50.5174 9.97337 48.6925 11.8027 48.6925 14.0534C48.6925 16.304 50.5174 18.1333 52.7624 18.1333C55.0075 18.1333 56.8322 16.304 56.8322 14.0534C56.8322 11.8027 55.0075 9.97337 52.7624 9.97337Z" fill="#252526"/>
<path d="M53.986 16.0532H51.5919C51.4004 16.0532 51.2461 15.8987 51.2461 15.7067C51.2461 15.5147 51.4004 15.36 51.5919 15.36H53.986C54.1775 15.36 54.3317 15.5147 54.3317 15.7067C54.3317 15.8987 54.1775 16.0532 53.986 16.0532Z" fill="#252526"/>
<path d="M53.986 14.88H51.5919C51.4004 14.88 51.2461 14.7253 51.2461 14.5333C51.2461 14.3413 51.4004 14.1866 51.5919 14.1866H53.986C54.1775 14.1866 54.3317 14.3413 54.3317 14.5333C54.3317 14.7253 54.1775 14.88 53.986 14.88Z" fill="#252526"/>
<path d="M52.7618 14.56C52.6553 14.56 52.5543 14.5067 52.4905 14.4213L50.8411 12.2347C50.7241 12.08 50.7561 11.8667 50.9104 11.7493C51.0646 11.632 51.2775 11.664 51.3945 11.8187L52.7723 13.648L54.1982 11.8187C54.3152 11.6693 54.5333 11.6427 54.6823 11.76C54.8312 11.8773 54.8578 12.096 54.7408 12.2453L53.0384 14.432C52.9745 14.5173 52.8735 14.5653 52.767 14.5653L52.7618 14.56Z" fill="#252526"/>
<path d="M52.7619 16.9068C52.5703 16.9068 52.416 16.752 52.416 16.56V14.2134C52.416 14.0214 52.5703 13.8667 52.7619 13.8667C52.9534 13.8667 53.1076 14.0214 53.1076 14.2134V16.56C53.1076 16.752 52.9534 16.9068 52.7619 16.9068Z" fill="#252526"/>
<path d="M30.5778 11.68C27.9498 11.68 25.8164 9.5413 25.8164 6.90663C25.8164 4.27196 27.9498 2.1333 30.5778 2.1333C33.2059 2.1333 35.3393 4.27196 35.3393 6.90663C35.3393 9.5413 33.2007 11.68 30.5778 11.68ZM30.5778 2.82663C28.3328 2.82663 26.508 4.65596 26.508 6.90663C26.508 9.1573 28.3328 10.9866 30.5778 10.9866C32.8229 10.9866 34.6476 9.1573 34.6476 6.90663C34.6476 4.65596 32.8229 2.82663 30.5778 2.82663Z" fill="#252526"/>
<path d="M31.0034 9.06669H30.2585C29.668 9.06669 29.168 8.56536 29.168 7.97336C29.168 7.78136 29.3223 7.62669 29.5138 7.62669C29.7053 7.62669 29.8595 7.78136 29.8595 7.97336C29.8595 8.16536 30.0298 8.37336 30.2585 8.37336H31.0034C31.1896 8.37336 31.4024 8.20269 31.4024 7.97336V7.76003C31.4024 7.57869 31.2694 7.44003 31.1418 7.38669L29.9926 7.02403C29.5403 6.87469 29.2744 6.49069 29.2744 6.00003V5.78669C29.2744 5.19469 29.7745 4.69336 30.365 4.69336H31.1098C31.7004 4.69336 32.2004 5.19469 32.2004 5.78669C32.2004 5.97869 32.0461 6.13336 31.8545 6.13336C31.663 6.13336 31.5088 5.97869 31.5088 5.78669C31.5088 5.55736 31.2959 5.38669 31.1098 5.38669H30.365C30.1363 5.38669 29.966 5.60003 29.966 5.78669V6.00003C29.966 6.18669 30.0458 6.30936 30.2106 6.36269L31.3757 6.73603C31.8173 6.91203 32.0939 7.31736 32.0939 7.76003V7.97336C32.0939 8.56536 31.5939 9.06669 31.0034 9.06669Z" fill="#252526"/>
<path d="M30.5773 5.44005C30.3858 5.44005 30.2314 5.2854 30.2314 5.0934V4.02673C30.2314 3.83473 30.3858 3.68005 30.5773 3.68005C30.7688 3.68005 30.923 3.83473 30.923 4.02673V5.0934C30.923 5.2854 30.7688 5.44005 30.5773 5.44005Z" fill="#252526"/>
<path d="M30.5773 10.1333C30.3858 10.1333 30.2314 9.97864 30.2314 9.78664V8.71996C30.2314 8.52796 30.3858 8.37329 30.5773 8.37329C30.7688 8.37329 30.923 8.52796 30.923 8.71996V9.78664C30.923 9.97864 30.7688 10.1333 30.5773 10.1333Z" fill="#252526"/>
<path d="M12.0105 20.5868C9.38236 20.5868 7.24902 18.4481 7.24902 15.8134C7.24902 13.1787 9.38236 11.04 12.0105 11.04C14.6385 11.04 16.7719 13.184 16.7719 15.8134C16.7719 18.4428 14.6332 20.5868 12.0105 20.5868ZM12.0105 11.7334C9.7654 11.7334 7.94064 13.5627 7.94064 15.8134C7.94064 18.0641 9.7654 19.8933 12.0105 19.8933C14.2555 19.8933 16.0803 18.0641 16.0803 15.8134C16.0803 13.5627 14.2555 11.7334 12.0105 11.7334Z" fill="#252526"/>
<path d="M10.1488 18.5066C10.0318 18.5066 9.91473 18.448 9.85089 18.336C9.75513 18.176 9.80301 17.9626 9.96261 17.8666C10.2712 17.6693 11.0798 17.0186 11.0798 16.3466C11.0798 16.1546 11.0107 16.0266 10.9043 15.8293C10.7447 15.5413 10.5478 15.184 10.5478 14.5333C10.5478 13.8827 11.1064 13.1733 11.9044 13.1733H12.4364C13.1866 13.1733 13.793 13.7813 13.793 14.5333C13.793 14.7253 13.6388 14.88 13.4472 14.88C13.2557 14.88 13.1014 14.7253 13.1014 14.5333C13.1014 14.1227 12.7556 13.8667 12.4364 13.8667H11.9044C11.532 13.8667 11.2394 14.224 11.2394 14.5333C11.2394 15.008 11.3724 15.2427 11.5054 15.4933C11.6278 15.7173 11.7714 15.9733 11.7714 16.3466C11.7714 16.7413 11.6225 17.0986 11.415 17.408C11.6278 17.408 11.8353 17.44 12.0161 17.536L12.08 17.568C12.5269 17.7973 12.8195 17.9146 13.2291 17.5733C13.3781 17.4506 13.5962 17.472 13.7186 17.616C13.8409 17.7653 13.8196 17.984 13.676 18.1066C12.8993 18.7573 12.197 18.4 11.7714 18.1866L11.7023 18.1493C11.4097 17.9893 10.7074 18.24 10.3244 18.4586C10.2712 18.4906 10.2127 18.5013 10.1541 18.5013L10.1488 18.5066Z" fill="#252526"/>
<path d="M12.915 16.4268H10.3614C10.1699 16.4268 10.0156 16.2721 10.0156 16.0801C10.0156 15.8881 10.1699 15.7334 10.3614 15.7334H12.915C13.1066 15.7334 13.2608 15.8881 13.2608 16.0801C13.2608 16.2721 13.1066 16.4268 12.915 16.4268Z" fill="#252526"/>
<path d="M5.20087 39.0933C2.57279 39.0933 0.439453 36.9493 0.439453 34.32C0.439453 31.6908 2.57279 29.5468 5.20087 29.5468C7.82898 29.5468 9.96231 31.6908 9.96231 34.32C9.96231 36.9493 7.82898 39.0933 5.20087 39.0933ZM5.20087 30.24C2.95583 30.24 1.13106 32.0693 1.13106 34.32C1.13106 36.5708 2.95583 38.4 5.20087 38.4C7.44593 38.4 9.2707 36.5708 9.2707 34.32C9.2707 32.0693 7.44593 30.24 5.20087 30.24Z" fill="#252526"/>
<path d="M6.37152 36.9601H5.30751C4.20627 36.9601 3.3125 36.0641 3.3125 34.9601V33.6801C3.3125 32.5761 4.20627 31.6801 5.30751 31.6801H6.37152C6.56305 31.6801 6.71732 31.8348 6.71732 32.0268C6.71732 32.2188 6.56305 32.3733 6.37152 32.3733H5.30751C4.58931 32.3733 4.0041 32.9601 4.0041 33.6801V34.9601C4.0041 35.6801 4.58931 36.2668 5.30751 36.2668H6.37152C6.56305 36.2668 6.71732 36.4213 6.71732 36.6133C6.71732 36.8053 6.56305 36.9601 6.37152 36.9601Z" fill="#252526"/>
<path d="M5.14806 33.9733H2.86046C2.66893 33.9733 2.51465 33.8188 2.51465 33.6268C2.51465 33.4348 2.66893 33.28 2.86046 33.28H5.14806C5.33959 33.28 5.49387 33.4348 5.49387 33.6268C5.49387 33.8188 5.33959 33.9733 5.14806 33.9733Z" fill="#252526"/>
<path d="M5.14806 35.3067H2.86046C2.66893 35.3067 2.51465 35.152 2.51465 34.96C2.51465 34.768 2.66893 34.6133 2.86046 34.6133H5.14806C5.33959 34.6133 5.49387 34.768 5.49387 34.96C5.49387 35.152 5.33959 35.3067 5.14806 35.3067Z" fill="#252526"/>
<path d="M63.1896 49.9468H40.5794C40.1537 49.9468 39.941 49.3068 40.3133 49.04L50.847 41.8933C51.5387 41.4133 52.443 41.4133 53.1347 41.8933C55.635 43.6 61.5936 47.6 63.4023 49.04C63.828 49.3068 63.6151 49.9468 63.1896 49.9468ZM50.3682 44.5068C49.517 45.36 49.517 46.8 50.3682 47.6533C51.2195 48.5068 52.6559 48.5068 53.5071 47.6533C54.3582 46.8 54.3582 45.36 53.5071 44.5068C52.6026 43.6533 51.2195 43.6533 50.3682 44.5068Z" fill="white"/>
<path d="M63.1896 49.9468H40.5794C40.1537 49.9468 39.941 49.3068 40.3133 49.04L50.847 41.8933C51.5387 41.4133 52.443 41.4133 53.1347 41.8933C55.635 43.6 61.5936 47.6 63.4023 49.04C63.828 49.3068 63.6151 49.9468 63.1896 49.9468ZM50.3682 44.5068C49.517 45.36 49.517 46.8 50.3682 47.6533C51.2195 48.5068 52.6559 48.5068 53.5071 47.6533C54.3582 46.8 54.3582 45.36 53.5071 44.5068C52.6026 43.6533 51.2195 43.6533 50.3682 44.5068Z" fill="white"/>
<path d="M63.9344 62.3468H40.1007C39.9092 62.3468 39.7549 62.1921 39.7549 62.0001C39.7549 61.8081 39.9092 61.6533 40.1007 61.6533H63.9344C64.126 61.6533 64.2803 61.8081 64.2803 62.0001C64.2803 62.1921 64.126 62.3468 63.9344 62.3468ZM41.7499 60.5868C41.5584 60.5868 41.404 60.4321 41.404 60.2401C41.404 60.0481 41.5584 59.8933 41.7499 59.8933H43.8514V50.3733C43.8514 50.3468 43.8514 50.3201 43.8619 50.2933H40.5795C40.239 50.2933 39.9304 50.0588 39.8187 49.7013C39.7017 49.3388 39.8187 48.9653 40.1113 48.7573L50.6504 41.6053C51.4589 41.0453 52.5123 41.0401 53.3262 41.6053L54.901 42.6773C57.7686 44.6241 62.1043 47.5681 63.61 48.7681C63.9025 48.9493 64.0462 49.3228 63.9397 49.6961C63.8387 50.0533 63.5354 50.2933 63.1843 50.2933H59.9018C59.9018 50.2933 59.9125 50.3468 59.9125 50.3733V59.8453H62.0671V59.8401C62.2586 59.8401 62.413 59.9948 62.413 60.1868C62.413 60.3788 62.2586 60.5333 62.0671 60.5333L41.7446 60.5868H41.7499ZM44.5322 50.2933C44.5322 50.2933 44.5429 50.3468 44.5429 50.3733V59.8881H47.6285V50.3733C47.6285 50.3468 47.6285 50.3201 47.6392 50.2933H44.5376H44.5322ZM48.3095 50.2933C48.3095 50.2933 48.3202 50.3468 48.3202 50.3733V59.8773L51.5654 59.8668V50.3733C51.5654 50.3468 51.5654 50.3201 51.5761 50.2933H48.3148H48.3095ZM52.2464 50.2933C52.2464 50.2933 52.2569 50.3468 52.2569 50.3733V59.8668L55.3958 59.8561V50.3733C55.3958 50.3468 55.3958 50.3201 55.4065 50.2933H52.2516H52.2464ZM56.0768 50.2933C56.0768 50.2933 56.0873 50.3468 56.0873 50.3733V59.8561H59.2262V50.3733C59.2262 50.3468 59.2262 50.3201 59.2369 50.2933H56.0821H56.0768ZM51.991 41.8773C51.6611 41.8773 51.3312 41.9788 51.0439 42.1761L40.505 49.3228C40.4412 49.3653 40.4678 49.4613 40.4784 49.4881C40.4943 49.5413 40.5317 49.5948 40.5795 49.5948H63.1896C63.2375 49.5948 63.2694 49.5308 63.2801 49.4988C63.296 49.4508 63.296 49.3761 63.2162 49.3281C61.7 48.1228 57.3748 45.1893 54.518 43.2481L52.9379 42.1761C52.6506 41.9733 52.3207 41.8773 51.9856 41.8773H51.991ZM51.9377 48.6348C51.2781 48.6348 50.613 48.3893 50.1237 47.8933C49.6449 47.4133 49.3841 46.7681 49.3841 46.0748C49.3841 45.3813 49.6449 44.7361 50.1237 44.2561C51.1078 43.2693 52.6985 43.2641 53.7412 44.2508C54.2254 44.7361 54.4913 45.3813 54.4913 46.0748C54.4913 46.7681 54.2307 47.4133 53.7519 47.8933C53.2624 48.3841 52.5975 48.6348 51.9377 48.6348ZM51.9217 44.2081C51.4429 44.2081 50.9748 44.3893 50.613 44.7468C50.2673 45.0933 50.0758 45.5681 50.0758 46.0748C50.0758 46.5813 50.2673 47.0561 50.613 47.4028C51.3047 48.0961 52.5708 48.0961 53.2624 47.4028C53.6082 47.0561 53.7998 46.5813 53.7998 46.0748C53.7998 45.5681 53.6082 45.0933 53.2624 44.7468C52.8793 44.3893 52.4005 44.2081 51.9217 44.2081Z" fill="url(#paint0_linear_169_2311)"/>
</g>
</g>
<defs>
<linearGradient id="paint0_linear_169_2311" x1="45.4898" y1="44.5868" x2="57.8412" y2="65.9253" gradientUnits="userSpaceOnUse">
<stop stop-color="#FF4800"/>
<stop offset="0.5" stop-color="#DA54D8"/>
<stop offset="1" stop-color="#0092F4"/>
</linearGradient>
<clipPath id="clip0_169_2311">
<rect width="64" height="64" fill="white" transform="translate(0.333008)"/>
</clipPath>
</defs>
</svg>
