<svg width="64" height="64" viewBox="0 0 64 64" fill="none" xmlns="http://www.w3.org/2000/svg">
<g clip-path="url(#clip0_120_566)">
<path d="M24.0454 60.5834C21.6045 60.5834 19.6191 58.5981 19.6191 56.1577C19.6191 53.7173 21.6045 51.7314 24.0454 51.7314C26.4863 51.7314 28.4716 53.7168 28.4716 56.1577C28.4716 58.5986 26.4863 60.5834 24.0454 60.5834ZM24.0454 52.5348C22.0475 52.5348 20.4224 54.1598 20.4224 56.1577C20.4224 58.1556 22.0475 59.7801 24.0454 59.7801C26.0433 59.7801 27.6683 58.1551 27.6683 56.1577C27.6683 54.1603 26.0433 52.5348 24.0454 52.5348Z" fill="url(#paint0_linear_120_566)"/>
<path d="M24.0455 58.2351C25.193 58.2351 26.1233 57.3049 26.1233 56.1573C26.1233 55.0098 25.193 54.0796 24.0455 54.0796C22.898 54.0796 21.9678 55.0098 21.9678 56.1573C21.9678 57.3049 22.898 58.2351 24.0455 58.2351Z" fill="white"/>
<path d="M24.0455 58.6369C22.6784 58.6369 21.5659 57.525 21.5659 56.1578C21.5659 54.7907 22.6783 53.6782 24.0455 53.6782C25.4127 53.6782 26.5252 54.7906 26.5252 56.1578C26.5252 57.525 25.4127 58.6369 24.0455 58.6369ZM24.0455 54.4816C23.1214 54.4816 22.3693 55.2337 22.3693 56.1578C22.3693 57.082 23.1214 57.8336 24.0455 57.8336C24.9697 57.8336 25.7218 57.082 25.7218 56.1578C25.7218 55.2337 24.9697 54.4816 24.0455 54.4816Z" fill="url(#paint1_linear_120_566)"/>
<path d="M48.2529 60.5834C45.8125 60.5834 43.8271 58.5981 43.8271 56.1577C43.8271 53.7173 45.8125 51.7314 48.2529 51.7314C50.6932 51.7314 52.6791 53.7168 52.6791 56.1577C52.6791 58.5986 50.6938 60.5834 48.2529 60.5834ZM48.2529 52.5348C46.2555 52.5348 44.6305 54.1598 44.6305 56.1577C44.6305 58.1556 46.2555 59.7801 48.2529 59.7801C50.2502 59.7801 51.8758 58.1551 51.8758 56.1577C51.8758 54.1603 50.2508 52.5348 48.2529 52.5348Z" fill="url(#paint2_linear_120_566)"/>
<path d="M48.2531 58.2351C49.4006 58.2351 50.3308 57.3049 50.3308 56.1573C50.3308 55.0098 49.4006 54.0796 48.2531 54.0796C47.1055 54.0796 46.1753 55.0098 46.1753 56.1573C46.1753 57.3049 47.1055 58.2351 48.2531 58.2351Z" fill="white"/>
<path d="M48.253 58.6369C46.8859 58.6369 45.7739 57.525 45.7739 56.1578C45.7739 54.7907 46.8859 53.6782 48.253 53.6782C49.6202 53.6782 50.7326 54.7906 50.7326 56.1578C50.7326 57.525 49.6202 58.6369 48.253 58.6369ZM48.253 54.4816C47.3289 54.4816 46.5773 55.2337 46.5773 56.1578C46.5773 57.082 47.3289 57.8336 48.253 57.8336C49.1772 57.8336 49.9293 57.082 49.9293 56.1578C49.9293 55.2337 49.1772 54.4816 48.253 54.4816Z" fill="url(#paint3_linear_120_566)"/>
<path d="M63.5985 61.1114H19.5838C19.362 61.1114 19.1821 60.9315 19.1821 60.7098C19.1821 60.488 19.362 60.3081 19.5838 60.3081H63.5985C63.8202 60.3081 64.0001 60.488 64.0001 60.7098C64.0001 60.9315 63.8202 61.1114 63.5985 61.1114Z" fill="url(#paint4_linear_120_566)"/>
<path d="M16.1842 61.1114H7.30449C7.08273 61.1114 6.90283 60.9315 6.90283 60.7098C6.90283 60.488 7.08273 60.3081 7.30449 60.3081H16.1842C16.406 60.3081 16.5859 60.488 16.5859 60.7098C16.5859 60.9315 16.406 61.1114 16.1842 61.1114Z" fill="url(#paint5_linear_120_566)"/>
<path d="M52.2777 40.9937H21.3572C21.1355 40.9937 20.9556 40.8138 20.9556 40.5921C20.9556 40.3703 21.1355 40.1904 21.3572 40.1904H52.2777C52.4995 40.1904 52.6794 40.3703 52.6794 40.5921C52.6794 40.8138 52.4995 40.9937 52.2777 40.9937Z" fill="url(#paint6_linear_120_566)"/>
<path d="M7.53243 17.4599H1.852C0.83056 17.4599 0 16.6293 0 15.6079C0 14.5865 0.83056 13.7554 1.852 13.7554H5.10357C5.32533 13.7554 5.50523 13.9353 5.50523 14.157C5.50523 14.3788 5.32533 14.5587 5.10357 14.5587H1.852C1.27355 14.5587 0.80336 15.0294 0.80336 15.6079C0.80336 16.1863 1.27355 16.6565 1.852 16.6565H7.53243C7.75419 16.6565 7.93408 16.8364 7.93408 17.0581C7.93408 17.2799 7.75419 17.4599 7.53243 17.4599Z" fill="url(#paint7_linear_120_566)"/>
<path d="M50.5972 46.7549H22.513C20.2012 46.7549 18.2034 45.1864 17.6547 42.94L12.0574 20.019C11.2483 16.7057 8.63119 14.5645 5.39007 14.5645L4.62074 14.5587C4.39898 14.5572 4.22063 14.3757 4.22218 14.1539C4.22372 13.9332 4.40314 13.7554 4.62383 13.7554H4.62698L5.39322 13.7611C8.95861 13.7611 11.9518 16.1994 12.8378 19.8286L18.4351 42.7496C18.8959 44.6346 20.5726 45.9515 22.513 45.9515H50.5972C52.5454 45.9515 54.2243 44.6283 54.6788 42.7339L58.5434 26.6356C58.8456 25.3772 58.5596 24.0728 57.7583 23.0566C56.9575 22.0404 55.7557 21.4578 54.4618 21.4578H17.9575C17.7358 21.4578 17.5559 21.2779 17.5559 21.0561C17.5559 20.8344 17.7358 20.6545 17.9575 20.6545H54.4617C56.0036 20.6545 57.435 21.349 58.3895 22.5593C59.3435 23.77 59.6845 25.3239 59.3247 26.8228L55.4602 42.9212C54.9183 45.1785 52.9183 46.7549 50.5972 46.7549Z" fill="url(#paint8_linear_120_566)"/>
<path d="M55.1946 31.4571H15.2898C15.0681 31.4571 14.8882 31.2772 14.8882 31.0555C14.8882 30.8337 15.0681 30.6538 15.2898 30.6538H55.1946C55.4164 30.6538 55.5963 30.8337 55.5963 31.0555C55.5963 31.2772 55.4164 31.4571 55.1946 31.4571Z" fill="url(#paint9_linear_120_566)"/>
<path d="M54.7204 19.3254H53.9171L53.9176 16.4609C53.9176 15.6711 53.2754 15.0289 52.4856 15.0289H39.6498C38.8601 15.0289 38.2178 15.6711 38.2178 16.4609V19.3254H37.4145V16.4609C37.4145 15.2281 38.4171 14.2255 39.6498 14.2255H52.4856C53.7184 14.2255 54.721 15.2281 54.721 16.4609L54.7204 19.3254ZM22.0206 18.6199H21.2173V12.6199C21.2173 11.0168 22.5217 9.71245 24.1247 9.71245H41.4762V10.5158H24.1248C22.9647 10.5158 22.0207 11.4599 22.0207 12.6199L22.0206 18.6199ZM50.2942 13.4729H49.4908C49.4908 11.5775 47.949 10.0351 46.0536 10.0351C44.1582 10.0351 42.6164 11.5775 42.6164 13.4729H41.813C41.813 11.1345 43.7152 9.23176 46.0536 9.23176C48.392 9.23176 50.2942 11.1345 50.2942 13.4729ZM38.5238 8.53618H37.7204C37.7204 5.86461 35.5473 3.69154 32.8758 3.69154C30.2043 3.69154 28.0316 5.86466 28.0316 8.53618H27.2283C27.2283 5.42162 29.7618 2.88818 32.8757 2.88818C35.9897 2.88818 38.5238 5.42168 38.5238 8.53618Z" fill="url(#paint10_linear_120_566)"/>
<path d="M54.7204 19.3254H53.9171L53.9176 16.4609C53.9176 15.6711 53.2754 15.0289 52.4856 15.0289H39.6498C38.8601 15.0289 38.2178 15.6711 38.2178 16.4609V19.3254H37.4145V16.4609C37.4145 15.2281 38.4171 14.2255 39.6498 14.2255H52.4856C53.7184 14.2255 54.721 15.2281 54.721 16.4609L54.7204 19.3254ZM22.0206 18.6199H21.2173V12.6199C21.2173 11.0168 22.5217 9.71245 24.1247 9.71245H41.4762V10.5158H24.1248C22.9647 10.5158 22.0207 11.4599 22.0207 12.6199L22.0206 18.6199ZM50.2942 13.4729H49.4908C49.4908 11.5775 47.949 10.0351 46.0536 10.0351C44.1582 10.0351 42.6164 11.5775 42.6164 13.4729H41.813C41.813 11.1345 43.7152 9.23176 46.0536 9.23176C48.392 9.23176 50.2942 11.1345 50.2942 13.4729ZM38.5238 8.53618H37.7204C37.7204 5.86461 35.5473 3.69154 32.8758 3.69154C30.2043 3.69154 28.0316 5.86466 28.0316 8.53618H27.2283C27.2283 5.42162 29.7618 2.88818 32.8757 2.88818C35.9897 2.88818 38.5238 5.42168 38.5238 8.53618Z" fill="#252526"/>
</g>
<defs>
<linearGradient id="paint0_linear_120_566" x1="21.967" y1="52.1238" x2="29.9183" y2="58.8809" gradientUnits="userSpaceOnUse">
<stop stop-color="#FF4800"/>
<stop offset="0.5" stop-color="#DA54D8"/>
<stop offset="1" stop-color="#0092F4"/>
</linearGradient>
<linearGradient id="paint1_linear_120_566" x1="22.8812" y1="53.898" x2="27.3354" y2="57.6834" gradientUnits="userSpaceOnUse">
<stop stop-color="#FF4800"/>
<stop offset="0.5" stop-color="#DA54D8"/>
<stop offset="1" stop-color="#0092F4"/>
</linearGradient>
<linearGradient id="paint2_linear_120_566" x1="46.1748" y1="52.1238" x2="54.1261" y2="58.8804" gradientUnits="userSpaceOnUse">
<stop stop-color="#FF4800"/>
<stop offset="0.5" stop-color="#DA54D8"/>
<stop offset="1" stop-color="#0092F4"/>
</linearGradient>
<linearGradient id="paint3_linear_120_566" x1="47.0891" y1="53.898" x2="51.5432" y2="57.683" gradientUnits="userSpaceOnUse">
<stop stop-color="#FF4800"/>
<stop offset="0.5" stop-color="#DA54D8"/>
<stop offset="1" stop-color="#0092F4"/>
</linearGradient>
<linearGradient id="paint4_linear_120_566" x1="31.0686" y1="60.3437" x2="31.0994" y2="61.8054" gradientUnits="userSpaceOnUse">
<stop stop-color="#FF4800"/>
<stop offset="0.5" stop-color="#DA54D8"/>
<stop offset="1" stop-color="#0092F4"/>
</linearGradient>
<linearGradient id="paint5_linear_120_566" x1="9.47093" y1="60.3437" x2="9.61234" y2="61.7922" gradientUnits="userSpaceOnUse">
<stop stop-color="#FF4800"/>
<stop offset="0.5" stop-color="#DA54D8"/>
<stop offset="1" stop-color="#0092F4"/>
</linearGradient>
<linearGradient id="paint6_linear_120_566" x1="29.3692" y1="40.226" x2="29.4128" y2="41.687" gradientUnits="userSpaceOnUse">
<stop stop-color="#FF4800"/>
<stop offset="0.5" stop-color="#DA54D8"/>
<stop offset="1" stop-color="#0092F4"/>
</linearGradient>
<linearGradient id="paint7_linear_120_566" x1="2.10424" y1="13.9196" x2="4.95033" y2="19.0993" gradientUnits="userSpaceOnUse">
<stop stop-color="#FF4800"/>
<stop offset="0.5" stop-color="#DA54D8"/>
<stop offset="1" stop-color="#0092F4"/>
</linearGradient>
<linearGradient id="paint8_linear_120_566" x1="18.8734" y1="15.2179" x2="47.1353" y2="55.4215" gradientUnits="userSpaceOnUse">
<stop stop-color="#FF4800"/>
<stop offset="0.5" stop-color="#DA54D8"/>
<stop offset="1" stop-color="#0092F4"/>
</linearGradient>
<linearGradient id="paint9_linear_120_566" x1="25.6846" y1="30.6894" x2="25.7186" y2="32.1509" gradientUnits="userSpaceOnUse">
<stop stop-color="#FF4800"/>
<stop offset="0.5" stop-color="#DA54D8"/>
<stop offset="1" stop-color="#0092F4"/>
</linearGradient>
<linearGradient id="paint10_linear_120_566" x1="30.103" y1="3.61666" x2="43.0594" y2="26.0579" gradientUnits="userSpaceOnUse">
<stop stop-color="#FF4800"/>
<stop offset="0.5" stop-color="#DA54D8"/>
<stop offset="1" stop-color="#0092F4"/>
</linearGradient>
<clipPath id="clip0_120_566">
<rect width="64" height="64" fill="white"/>
</clipPath>
</defs>
</svg>
