<svg width="65" height="64" viewBox="0 0 65 64" fill="none" xmlns="http://www.w3.org/2000/svg">
<path d="M32.5552 61.9464C31.1952 61.9464 29.8352 61.6486 28.5925 61.0634L19.7018 56.8606C19.5045 56.7648 19.4192 56.5307 19.5098 56.3285C19.6058 56.1317 19.8405 56.0466 20.0432 56.137L28.9338 60.3399C30.9605 61.2975 33.3338 61.4092 35.4458 60.6431L55.7338 53.2748C56.4325 53.0195 56.9498 52.4609 57.1472 51.7374C57.3445 51.0138 57.1845 50.2743 56.7098 49.6998C55.4352 48.1623 53.3872 47.5718 51.4992 48.1943C46.9658 49.6891 44.0058 50.9659 43.9792 50.9766C43.8778 51.0192 43.7712 51.0192 43.6752 50.9819C43.0458 51.8544 41.6165 52.3225 39.5685 52.3225H29.3178C29.0992 52.3225 28.9178 52.1417 28.9178 51.9235C28.9178 51.7055 29.0992 51.5245 29.3178 51.5245H39.5685C41.5472 51.5245 42.8912 51.0404 43.1738 50.2317C43.4512 49.4337 42.7045 48.2421 41.1792 47.0504C39.1685 45.481 35.9952 44.4649 33.0938 44.4649H28.5018C26.9765 44.4649 25.4405 44.0871 24.0698 43.3689C22.5978 42.5923 21.1578 41.9539 19.7978 41.4696C19.5898 41.3953 19.4832 41.1664 19.5578 40.9589C19.6325 40.7514 19.8618 40.6451 20.0698 40.7195C21.4672 41.2197 22.9392 41.8741 24.4485 42.6666C25.7072 43.321 27.1098 43.6721 28.5125 43.6721H33.1045C36.1712 43.6721 39.5365 44.7521 41.6805 46.428C43.3338 47.7207 44.1498 49.0082 44.0272 50.0988C44.9552 49.7157 47.6005 48.6464 51.2538 47.4441C53.4618 46.7152 55.8458 47.4068 57.3338 49.1997C57.9738 49.9764 58.1925 50.9819 57.9258 51.9554C57.6592 52.929 56.9658 53.6845 56.0165 54.0302L35.7285 61.3985C34.7098 61.7709 33.6378 61.9519 32.5658 61.9519L32.5552 61.9464Z" fill="#252526"/>
<path d="M16.6881 38.4479V57.1158C16.6881 58.4831 15.5841 59.5844 14.2081 59.5844H9.9468C8.5708 59.5844 7.4668 58.4831 7.4668 57.1158V38.4479C7.4668 37.0806 8.5708 35.9794 9.9468 35.9794H14.2081C15.5841 35.9794 16.6881 37.0806 16.6881 38.4479Z" fill="#EFEFEF"/>
<path d="M14.2087 59.9834H9.94738C8.35805 59.9834 7.06738 58.6959 7.06738 57.1159V38.448C7.06738 36.8679 8.35805 35.5804 9.94738 35.5804H14.2087C15.7981 35.5804 17.0887 36.8679 17.0887 38.448V57.1159C17.0887 58.6959 15.7981 59.9834 14.2087 59.9834ZM9.94738 36.3784C8.80071 36.3784 7.86738 37.3094 7.86738 38.448V57.1159C7.86738 58.2545 8.80071 59.1854 9.94738 59.1854H14.2087C15.3554 59.1854 16.2887 58.2597 16.2887 57.1159V38.448C16.2887 37.3094 15.3554 36.3784 14.2087 36.3784H9.94738Z" fill="#252526"/>
<path d="M57.3926 33.7078C56.6886 24.9989 47.0673 15.4281 41.5846 12.6192C42.71 11.7839 44.2993 9.6027 45.0513 7.69282C45.8086 5.76165 45.6966 4.26671 44.726 3.3623C43.7073 2.42066 41.9793 2.9633 40.95 3.2825C40.726 3.35167 40.5393 3.41018 40.358 3.45275C39.398 3.75599 38.054 3.33571 36.6353 2.89414C36.1073 2.72923 35.5581 2.55898 35.014 2.42066C32.8593 1.80886 29.2113 2.70794 27.9153 4.75083C27.4513 5.47968 26.9286 6.97993 28.5926 8.87387C29.67 10.1081 31.9153 11.9808 33.3233 12.683C29.99 14.8536 26.39 18.1094 23.574 21.5196C20.1233 25.6904 18.2246 29.638 18.2246 32.6385C18.2246 32.8565 18.406 33.0375 18.6246 33.0375C18.8433 33.0375 19.0246 32.8565 19.0246 32.6385C19.0246 26.3448 27.8673 17.0135 34.262 13.0288C36.6406 13.0288 40.0861 13.0182 40.614 13.0288C45.75 15.2473 55.8941 24.9722 56.6033 33.7662C56.9446 37.9904 55.062 41.4271 51.0086 43.9702C50.822 44.0871 50.7633 44.3318 50.8806 44.5181C50.9553 44.6405 51.0886 44.7043 51.222 44.7043C51.2966 44.7043 51.366 44.6829 51.4353 44.6405C55.7606 41.9218 57.7713 38.2405 57.4033 33.6971L57.3926 33.7078ZM34.39 12.2414C34.3313 12.2042 34.2673 12.1829 34.1926 12.1829C33.5633 12.1829 30.662 10.0443 29.1846 8.35781C28.1766 7.20869 27.974 6.14469 28.582 5.18708C29.67 3.47402 32.902 2.66006 34.7953 3.19739C35.3286 3.33571 35.8673 3.50063 36.39 3.66554C37.9366 4.14435 39.398 4.60187 40.5606 4.23479C40.726 4.19756 40.9393 4.13372 41.1846 4.05392C42.0486 3.78259 43.5046 3.33038 44.1821 3.95816C44.7953 4.52739 44.9126 5.46903 44.5286 6.76713C43.7446 9.41118 41.3233 12.0818 40.8006 12.1829C40.726 12.1829 40.662 12.2095 40.6086 12.2468C40.198 12.2361 38.886 12.2361 34.3953 12.2468L34.39 12.2414Z" fill="#252526"/>
<path d="M38.2902 38.9426C37.6877 38.9426 37.0758 38.8823 36.4733 38.7661C34.0258 38.283 31.9144 36.8846 30.5226 34.8221C29.1306 32.7594 28.6309 30.2833 29.1118 27.8397C29.593 25.4008 30.999 23.2917 33.0635 21.9073C35.1328 20.5183 37.6224 20.0213 40.0606 20.4998C42.5082 20.9829 44.6194 22.3812 46.0114 24.4438C47.4032 26.5065 47.903 28.9826 47.4219 31.4261C46.9408 33.8651 45.5349 35.9741 43.4704 37.3584C41.9149 38.399 40.1213 38.9426 38.2902 38.9426ZM38.2717 21.1548C33.5867 21.1548 29.7798 24.9595 29.7798 29.6283C29.7798 34.2971 33.5914 38.1017 38.2717 38.1017C42.9518 38.1017 46.7634 34.2971 46.7634 29.6283C46.7634 24.9595 42.9518 21.1548 38.2717 21.1548ZM36.9731 32.7455C36.8936 32.7455 36.8096 32.7222 36.7395 32.6665L34.2686 30.6782C34.1098 30.5481 34.0864 30.3205 34.2126 30.1671C34.3387 30.0093 34.5675 29.986 34.7264 30.1114L36.931 31.8814L41.6581 26.4879C41.7934 26.3346 42.0224 26.3254 42.1765 26.4507C42.3307 26.5855 42.34 26.8178 42.2139 26.9663L37.2581 32.62C37.1832 32.699 37.0851 32.7409 36.9824 32.7409H36.9685L36.9731 32.7455Z" fill="url(#paint0_linear_169_2298)"/>
<defs>
<linearGradient id="paint0_linear_169_2298" x1="33.6011" y1="21.5713" x2="42.8974" y2="37.714" gradientUnits="userSpaceOnUse">
<stop stop-color="#FF4800"/>
<stop offset="0.5" stop-color="#DA54D8"/>
<stop offset="1" stop-color="#0092F4"/>
</linearGradient>
</defs>
</svg>
