<?xml version="1.0" encoding="utf-8"?>
<!-- Generator: Adobe Illustrator 30.1.0, SVG Export Plug-In . SVG Version: 9.03 Build 0)  -->
<svg version="1.0"
	 id="svg30" xmlns:dc="http://purl.org/dc/elements/1.1/" xmlns:cc="http://creativecommons.org/ns#" xmlns:rdf="http://www.w3.org/1999/02/22-rdf-syntax-ns#" xmlns:svg="http://www.w3.org/2000/svg"
	 xmlns="http://www.w3.org/2000/svg" xmlns:xlink="http://www.w3.org/1999/xlink" x="0px" y="0px" viewBox="0 0 198 64"
	 style="enable-background:new 0 0 198 64;" xml:space="preserve">
<style type="text/css">
	.st0{fill:#3259B4;}
	.st1{fill:#3C8CFF;}
	.st2{fill:#00C8D2;}
	.st3{fill:#78E6DD;}
</style>
<g id="g68" transform="translate(-5889.2439,-88.063461)">
	<path id="path58" class="st0" d="M5890.6,104.5l6,1.7v23.9l-6,1.7V104.5z"/>
	<path id="path60" class="st1" d="M5900,116.7l5.8,1.5v12.9l-5.8,1.2V116.7z"/>
	<path id="path62" class="st2" d="M5910,114.2l5.4-1.5v15.8l-5.4-1.6V114.2z"/>
	<path id="path64" class="st3" d="M5919,103.2l6,1.7v26.8l-6,1.5V103.2z"/>
	<path id="path49" class="st0" d="M6072.3,121.3h10.5c-0.2-1.3-0.7-2.4-1.7-3.2s-2.1-1.2-3.5-1.2c-1.4,0-2.6,0.4-3.6,1.3
		C6073,118.9,6072.4,120,6072.3,121.3L6072.3,121.3z M6072.3,123.5c0.1,1.4,0.7,2.6,1.7,3.5c1,0.9,2.4,1.3,4,1.3c1,0,2-0.2,2.9-0.6
		c0.9-0.4,1.7-1.1,2.4-1.9l2,1.6c-1,1.2-2.1,2-3.3,2.6c-1.2,0.6-2.6,0.8-4.1,0.8c-1.2,0-2.4-0.2-3.5-0.7c-1.1-0.4-2-1.1-2.8-1.9
		c-0.7-0.7-1.2-1.6-1.6-2.5c-0.4-1-0.5-2-0.5-3c0-2.5,0.8-4.5,2.3-6c1.5-1.5,3.5-2.3,5.9-2.3c2.5,0,4.5,0.8,6,2.5
		c1.5,1.6,2.3,3.8,2.3,6.5v0.2H6072.3z M6066.1,118.4c-0.5-0.5-1-0.9-1.7-1.2c-0.6-0.3-1.3-0.4-2.1-0.4c-1.5,0-2.8,0.5-3.8,1.6
		c-1,1.1-1.5,2.5-1.5,4.2s0.5,3.1,1.5,4.1c1,1.1,2.3,1.6,3.8,1.6c0.8,0,1.6-0.1,2.2-0.4c0.7-0.3,1.2-0.7,1.7-1.3l1.8,2.1
		c-0.8,0.7-1.7,1.3-2.6,1.6c-0.9,0.3-2,0.5-3.1,0.5c-1.2,0-2.3-0.2-3.3-0.6c-1-0.4-1.9-1-2.6-1.7c-0.8-0.8-1.4-1.7-1.8-2.7
		c-0.4-1-0.6-2.1-0.6-3.3c0-1.2,0.2-2.3,0.6-3.3c0.4-1,1-1.9,1.8-2.7c0.7-0.7,1.6-1.3,2.6-1.7c1-0.4,2.1-0.6,3.3-0.6
		c1.1,0,2.2,0.2,3.1,0.5c0.9,0.3,1.8,0.8,2.5,1.5L6066.1,118.4z M6038.9,130.4v-15.7h2.8v1.8c0.7-0.7,1.4-1.2,2.2-1.6
		c0.8-0.3,1.6-0.5,2.5-0.5c1.8,0,3.3,0.6,4.3,1.8c1.1,1.2,1.6,2.9,1.6,5.1v9.1h-2.8v-8.8c0-1.6-0.3-2.8-0.9-3.6
		c-0.6-0.8-1.5-1.2-2.7-1.2c-1.4,0-2.5,0.4-3.2,1.2c-0.7,0.8-1.1,2-1.1,3.6v8.7H6038.9z M6028.2,128.2c1.6,0,2.9-0.5,3.9-1.6
		c1-1.1,1.5-2.4,1.5-4.1c0-1.7-0.5-3-1.5-4.1c-1-1.1-2.3-1.6-3.9-1.6s-2.9,0.5-3.9,1.6c-1,1.1-1.5,2.4-1.5,4.1c0,1.7,0.5,3,1.5,4.1
		C6025.3,127.7,6026.6,128.2,6028.2,128.2z M6036.2,130.4h-2.8v-2.6c-0.7,0.9-1.5,1.6-2.4,2.1c-0.9,0.5-2,0.7-3.2,0.7
		c-1.1,0-2.1-0.2-3.1-0.6c-1-0.4-1.8-1-2.6-1.8c-0.7-0.8-1.3-1.6-1.6-2.6s-0.6-2-0.6-3.1c0-2.4,0.7-4.4,2.2-5.9
		c1.4-1.5,3.4-2.2,5.7-2.2c1.2,0,2.3,0.2,3.3,0.7c1,0.5,1.8,1.2,2.6,2.1v-2.6h2.6V130.4z M6003.5,110.3v17.4h2.2
		c3.2,0,5.5-0.7,7.1-2.2c1.6-1.5,2.4-3.6,2.4-6.5c0-2.9-0.8-5.1-2.4-6.5c-1.6-1.5-4-2.2-7.1-2.2L6003.5,110.3z M6005.3,107.6
		c4.2,0,7.5,1,9.7,2.9c2.2,1.9,3.3,4.8,3.3,8.5c0,3.7-1.1,6.6-3.3,8.5c-2.2,1.9-5.4,2.9-9.7,2.9h-4.7v-22.8H6005.3z M5983,121.3
		h10.4c-0.2-1.3-0.7-2.4-1.7-3.2c-0.9-0.8-2.1-1.2-3.4-1.2c-1.4,0-2.5,0.4-3.5,1.3C5983.7,118.9,5983.1,120,5983,121.3L5983,121.3z
		 M5983,123.5c0.1,1.4,0.7,2.6,1.7,3.5c1,0.9,2.3,1.3,3.9,1.3c1,0,1.9-0.2,2.8-0.6c0.9-0.4,1.7-1.1,2.4-1.9l2,1.6
		c-1,1.2-2.1,2-3.3,2.6c-1.2,0.6-2.5,0.8-4,0.8c-1.2,0-2.4-0.2-3.4-0.7c-1.1-0.4-2-1.1-2.7-1.9c-0.7-0.7-1.2-1.6-1.5-2.5
		c-0.4-1-0.5-2-0.5-3c0-2.5,0.7-4.5,2.2-6s3.4-2.3,5.8-2.3c2.4,0,4.4,0.8,5.9,2.5c1.5,1.6,2.3,3.8,2.3,6.5v0.2H5983z M5972.5,110.9
		v3.8h-2.3h-3.1l-4.2,9.9c-0.1,0.2-0.2,0.5-0.4,1.1c-0.2,0.6-0.4,1.3-0.7,2.1c-0.2-0.9-0.5-1.6-0.6-2.1c-0.2-0.6-0.3-0.9-0.4-1
		l-4.2-9.9h-3.2l6.7,15.7l-2.8,6.5h2.9l9-19.9l3.4,0.1v10.1c0,1.3,0.3,2.2,1,2.8c0.7,0.6,1.8,0.8,3.4,0.8h1.8v-2.6h-1.7
		c-0.5,0-0.8-0.1-1-0.3c-0.2-0.2-0.3-0.6-0.3-1v-9.8h3v-2.3h-3v-3.8H5972.5z M5936.2,130.4v-22.8h4.4c1.7,0,3.1,0.1,4,0.2
		c1,0.1,1.8,0.4,2.5,0.7c1.1,0.6,2,1.3,2.5,2.2c0.6,0.9,0.9,1.9,0.9,3c0,0.9-0.3,1.8-0.8,2.5c-0.5,0.8-1.3,1.4-2.3,1.9
		c1.6,0.5,2.8,1.2,3.7,2.2c0.8,1,1.3,2.2,1.3,3.6c0,1.8-0.8,3.3-2.4,4.5c-1.6,1.2-3.6,1.8-6,1.8H5936.2z M5939.6,117.4h2.8
		c1.6,0,2.7-0.3,3.6-0.9c0.9-0.6,1.3-1.5,1.3-2.7c0-1.2-0.4-2.1-1.3-2.7s-2.1-0.9-3.8-0.9h-2.6V117.4z M5939.6,127.7h3.4
		c1.9,0,3.4-0.3,4.4-1c1-0.7,1.5-1.6,1.5-2.9c0-1.3-0.5-2.2-1.5-2.8c-1-0.7-2.4-1-4.3-1h-3.6V127.7z"/>
</g>
</svg>
