<?xml version="1.0" encoding="UTF-8"?>
<svg id="eBay_logo" xmlns="http://www.w3.org/2000/svg" xmlns:svg="http://www.w3.org/2000/svg" xmlns:sodipodi="http://sodipodi.sourceforge.net/DTD/sodipodi-0.dtd" xmlns:inkscape="http://www.inkscape.org/namespaces/inkscape" version="1.1" viewBox="0 0 198 64">
  <!-- Generator: Adobe Illustrator 30.1.0, SVG Export Plug-In . SVG Version: 2.1.1 Build 136)  -->
  <defs>
    <style>
      .st0 {
        fill: #f12c2d;
      }

      .st1 {
        font-family: AdobeArabic-Regular, 'Adobe Arabic';
        font-size: 12px;
      }

      .st2 {
        fill: #93c822;
      }

      .st3 {
        fill: #0968f6;
      }

      .st4 {
        fill: #ffbc13;
      }
    </style>
  </defs>
  <sodipodi:namedview id="namedview4" bordercolor="#000000" borderopacity="0.25" inkscape:current-layer="eBay_logo" inkscape:cx="546" inkscape:cy="199" inkscape:deskcolor="#d1d1d1" inkscape:pagecheckerboard="0" inkscape:pageopacity="0.0" inkscape:showpageshadow="2" inkscape:window-height="705" inkscape:window-maximized="1" inkscape:window-width="1366" inkscape:window-x="-8" inkscape:window-y="-8" inkscape:zoom="0.5" pagecolor="#ffffff"/>
  <g id="g4">
    <path id="path1" class="st4" d="M119,33.3c-6.8.2-11,1.5-11,5.9s2.3,6.1,8.2,6.1,12.1-4.3,12.1-11.3v-.8c-2.8,0-6.2,0-9.2.1h0ZM135.7,42.6c0,2.2,0,4.3.3,6.3h-7c-.2-1.6-.3-3.2-.3-4.7-3.8,4.6-8.3,6-14.5,6-9.2,0-14.2-4.9-14.2-10.5,0-8.2,6.7-11.1,18.4-11.3,3.2,0,6.8,0,9.8,0v-.8c0-5.5-3.5-7.7-9.6-7.7s-7.9,1.9-8.2,5.1h-7.9c.8-8.1,9.3-10.1,16.8-10.1s16.5,3.2,16.5,12.6v15.4Z"/>
    <path id="path2" class="st0" d="M54,29.3c-.3-7-5.4-9.7-10.8-9.7s-10.5,3-11.3,9.7h22.1ZM31.7,34.3c.4,6.8,5.1,10.9,11.6,10.9s8.5-1.8,9.8-5.8h7.8c-1.5,8.1-10.1,10.8-17.4,10.8-13.4,0-19.3-7.4-19.3-17.3s6.1-18.2,19.5-18.2,18.4,5.5,18.4,17.7v2h-30.2Z"/>
    <path id="path3" class="st3" d="M81.1,45c7,0,11.8-5,11.8-12.6s-4.8-12.6-11.8-12.6-11.8,5-11.8,12.6,4.8,12.6,11.8,12.6h0ZM61.9,1.4h7.5v18.9c3.7-4.4,8.8-5.7,13.7-5.7,8.4,0,17.7,5.6,17.7,17.8s-7.4,17.7-17.8,17.7-10.6-2-13.7-5.8c0,1.5,0,3.1-.3,4.6h-7.4c.1-2.4.3-5.4.3-7.8V1.4Z"/>
    <path id="path4" class="st2" d="M174,15.9l-23.2,45.6h-8.4l6.7-12.7-17.5-33h8.8l12.9,25.8,12.8-25.8h8Z"/>
  </g>
  <text class="st1" transform="translate(600 314)"><tspan x="0" y="0">198</tspan></text>
</svg>