<?xml version="1.0" encoding="UTF-8"?>
<svg id="Layer_1" xmlns="http://www.w3.org/2000/svg" version="1.1" viewBox="0 0 198 64">
  <!-- Generator: Adobe Illustrator 30.1.0, SVG Export Plug-In . SVG Version: 2.1.1 Build 136)  -->
  <defs>
    <style>
      .st0 {
        fill: #f45800;
      }
    </style>
  </defs>
  <path class="st0" d="M50.2,7.5v16.7s5.9,0,9-.2c2.5-.4,2.9-.7,3.4-3.2l.9-3.6h2.7l-.5,7.9.2,8.1h-2.7l-.7-3.2c-.7-2.3-1.6-2.7-3.4-2.9-2.3-.2-9-.2-9-.2v14c0,2.7,1.4,3.9,4.5,3.9h9.5c2.9,0,5.9-.2,7.7-4.5l2.5-5.4h2.3c-.2,1.1-1.4,11.1-1.6,13.3,0,0-8.6-.2-12.2-.2h-16.3l-9.7.2v-2.5l3.2-.7c2.3-.5,3-1.1,3-2.9,0,0,.2-6.1.2-16.3s-.2-16.3-.2-16.3c0-2-.7-2.5-3-2.9l-3.2-.7v-2.5l9.5.2h18.1c3.6,0,9.7-.7,9.7-.7,0,0-.2,3.8-.5,12.9h-2.5l-.9-3.2c-.9-4.1-2.2-6.1-4.7-6.1h-14.2c-1.2,0-1.2.2-1.2.9ZM86.9,9.3h2.7v9.5l9.3-.5-.5,4.3-9-.7v16.7c0,4.7,1.6,6.6,4.3,6.6s4.3-1.4,5-2.5l1.3,1.6c-1.3,3.2-5.2,4.7-8.8,4.7s-8.2-2.7-8.2-7.9v-19h-5.4v-2.3c4.5-.5,7.9-3.2,9.2-10.6ZM106.3,38.5l1.8,4.3c.7,1.8,2.3,3.6,5.9,3.6s5.4-2,5.4-4.5c0-7.7-15.2-5.4-15.2-15.8s4.7-8.6,10.9-8.6,6.8.5,8.8,1.4c-.5,2.3-.7,5.2-.7,7.5l-2.2.2-1.6-4.5c-.5-1.1-2.3-2-4.5-2s-5.4,1.1-5.4,4.1c0,7,15.6,5.4,15.6,15.8s-5.2,9-11.5,9-9.5-1.8-9.5-1.8c.5-2.7.2-5.6,0-8.6,0,0,2.3,0,2.3,0ZM124,60.2c.7-2.5,1.1-5.6,1.6-8.6l2.5-.2.9,4.7c.2,1.1.9,2,2.7,2,2.9,0,6.8-1.8,10.4-8.1-1.6-3.9-6.3-16.3-10.7-25.8-1.1-2.5-1.3-2.7-2.9-3.2l-1.2-.4v-2.3l6.8.2,8.4-.5v2.3l-2,.5c-1.6.2-2.2,1.1-2.2,2s0,.5.2.9c.4,1.4,4.1,11.5,6.8,18.3,2.2-4.7,6.5-15.4,7.2-17.2.2-.9.5-1.1.5-1.8,0-1.2-.7-1.8-2.2-2.3l-1.6-.5v-2.3l6.3.2,5.9-.2v2.3l-1.1.9c-2.3.9-2.5,1.1-3.4,3l-9.9,23.3c-5.9,13.4-12,14.5-16.3,14.5-2.7,0-4.8-.7-6.5-1.8Z"/>
</svg>