<?xml version="1.0" encoding="UTF-8"?>
<svg id="Layer_1" xmlns="http://www.w3.org/2000/svg" version="1.1" viewBox="0 0 198 64">
  <!-- Generator: Adobe Illustrator 30.1.0, SVG Export Plug-In . SVG Version: 2.1.1 Build 136)  -->
  <defs>
    <style>
      .st0 {
        fill: #6fda44;
      }

      .st1 {
        fill: #4b4b4b;
      }
    </style>
  </defs>
  <path class="st1" d="M124.2,18.1c-7.5,0-13.6,6.2-13.6,13.9s6.2,13.8,13.7,13.8c7.5,0,13.6-6.2,13.6-13.9,0-7.7-6.2-13.8-13.7-13.8h0ZM124.3,40.1c-2.1,0-4.2-.8-5.7-2.3s-2.3-3.5-2.4-5.7.8-4.2,2.3-5.7,3.5-2.3,5.7-2.4,4.2.8,5.7,2.3,2.3,3.5,2.4,5.7c0,4.3-3.7,8-8,8.1h0ZM154.6,24.6c-3.9,0-7,3.3-7,7.2v13.1c0,0-5.9,0-5.9,0v-26.1c-.1,0,5.9,0,5.9,0v4.1s2.6-4.1,7.7-4.1h1.7s0,5.8,0,5.8h-2.4ZM95,19.1l4.5,17.9,4.7-17.9h6s-7.4,26.1-7.4,26.1h-5.8s-4.7-18.2-4.7-18.2l-4.5,18.3h-5.8s-7.8-26-7.8-26h5.8s5.2,17.9,5.2,17.9l4.2-17.9h5.6ZM174.4,30.6c4.1-2.4,7-6.9,6.9-12h-6c0,4.5-3.5,8.1-7.8,8.1h-.9s0-20.6,0-20.6h-6s.2,38.8.2,38.8h6s0-12.3,0-12.3h.7c.7,0,1.4.3,1.5.8l8.4,11.4h7s-10-14.1-10-14.1Z"/>
  <path class="st0" d="M60.4,18.4c-6.5,0-11.4,4.3-13.3,11.2-3.1-4.8-5.5-10.2-6.9-14.8h-6.8s0,18.1,0,18.1c0,3.6-2.9,6.5-6.5,6.5-3.6,0-6.5-2.9-6.5-6.5V14.8c0,0-6.9,0-6.9,0v18.1c.1,7.5,6.1,13.4,13.5,13.4,7.3,0,13.3-6,13.2-13.5v-3.1c1.4,2.7,3.1,5.6,5,8.2l-4.2,20h7s3-14.5,3-14.5c2.7,1.7,5.8,2.7,9.4,2.7,7.5,0,13.6-6.2,13.6-14.1,0-7.5-6.2-13.6-13.7-13.6h0ZM60.5,39c-2.7,0-5.5-1.2-7.7-3l.7-2.7v-.2c.5-2.9,2-7.9,7.1-7.9,3.8,0,6.8,3,6.9,6.8-.2,3.9-3.4,7-7,7h0Z"/>
</svg>