<svg width="64" height="64" viewBox="0 0 64 64" fill="none" xmlns="http://www.w3.org/2000/svg">
<g clip-path="url(#clip0_120_523)">
<mask id="mask0_120_523" style="mask-type:luminance" maskUnits="userSpaceOnUse" x="0" y="0" width="64" height="64">
<path d="M64 0H0V64H64V0Z" fill="white"/>
</mask>
<g mask="url(#mask0_120_523)">
<path d="M4.26557 48.1755H0.533788C0.312936 48.1755 0.133789 47.9963 0.133789 47.7755C0.133789 47.5545 0.312936 47.3755 0.533788 47.3755H4.26557C4.48643 47.3755 4.66557 47.5545 4.66557 47.7755C4.66557 47.9963 4.48643 48.1755 4.26557 48.1755Z" fill="url(#paint0_linear_120_523)"/>
<path d="M10.2081 41.217C9.98726 41.217 9.80811 41.0379 9.80811 40.817V15.4353C9.80811 13.3311 11.5196 11.6196 13.6237 11.6196H50.0753C52.1794 11.6196 53.8909 13.3311 53.8909 15.4353V30.6509C53.8909 30.8717 53.7117 31.0509 53.4909 31.0509C53.2701 31.0509 53.0909 30.8717 53.0909 30.6509V15.4353C53.0909 13.7722 51.7383 12.4196 50.0753 12.4196H13.6237C11.9607 12.4196 10.6081 13.7722 10.6081 15.4353V40.817C10.6081 41.0379 10.429 41.217 10.2081 41.217Z" fill="url(#paint1_linear_120_523)"/>
<path d="M40.9559 48.1752H13.4694C10.334 48.1752 7.97462 47.0372 6.64599 44.884C6.22983 44.2096 6.04443 43.5029 6.04443 42.5924V42.5117C6.04443 41.6596 6.61426 40.7476 7.46267 40.7476H40.9559C41.1767 40.7476 41.3559 40.9268 41.3559 41.1476C41.3559 41.3685 41.1767 41.5476 40.9559 41.5476H7.46263C7.12983 41.5476 6.84439 42.0778 6.84439 42.5117V42.5924C6.84439 43.3559 6.98866 43.9159 7.32722 44.4644C8.5189 46.396 10.585 47.3752 13.4694 47.3752H40.9559C41.1767 47.3752 41.3559 47.5544 41.3559 47.7752C41.3559 47.996 41.1767 48.1752 40.9559 48.1752Z" fill="url(#paint2_linear_120_523)"/>
<path d="M53.4537 15.3596H10.485C10.2641 15.3596 10.085 15.1804 10.085 14.9596C10.085 14.7387 10.2641 14.5596 10.485 14.5596H53.4537C53.6745 14.5596 53.8537 14.7387 53.8537 14.9596C53.8537 15.1804 53.6745 15.3596 53.4537 15.3596Z" fill="url(#paint3_linear_120_523)"/>
<path d="M16.94 41.3308C16.7192 41.3308 16.54 41.1516 16.54 40.9308V16.7364C16.54 16.5156 16.7192 16.3364 16.94 16.3364C17.1608 16.3364 17.34 16.5156 17.34 16.7364V40.9308C17.34 41.1516 17.1608 41.3308 16.94 41.3308Z" fill="url(#paint4_linear_120_523)"/>
<path d="M16.9401 48.1755H6.69639C6.47554 48.1755 6.29639 47.9963 6.29639 47.7755C6.29639 47.5545 6.47554 47.3755 6.69639 47.3755H16.9401C17.1609 47.3755 17.3401 47.5545 17.3401 47.7755C17.3401 47.9963 17.1609 48.1755 16.9401 48.1755Z" fill="url(#paint5_linear_120_523)"/>
<path d="M53.4536 53.3598C47.7119 53.3598 43.0405 48.6884 43.0405 42.9468C43.0405 37.2051 47.7119 32.5337 53.4536 32.5337C59.1952 32.5337 63.8666 37.2051 63.8666 42.9468C63.8666 48.6884 59.1952 53.3598 53.4536 53.3598ZM53.4536 33.3337C48.153 33.3337 43.8405 37.6462 43.8405 42.9468C43.8405 48.2473 48.153 52.5598 53.4536 52.5598C58.7541 52.5598 63.0666 48.2473 63.0666 42.9468C63.0666 37.6462 58.7541 33.3337 53.4536 33.3337ZM53.4536 51.3743C48.8068 51.3743 45.026 47.5937 45.026 42.9468C45.026 38.2999 48.8068 34.5191 53.4536 34.5191C58.1005 34.5191 61.8812 38.2999 61.8812 42.9468C61.8812 47.5937 58.1005 51.3743 53.4536 51.3743ZM53.4536 35.3191C49.2479 35.3191 45.826 38.7411 45.826 42.9468C45.826 47.1526 49.2479 50.5745 53.4536 50.5745C57.6594 50.5745 61.0812 47.1526 61.0812 42.9468C61.0812 38.7411 57.6594 35.3191 53.4536 35.3191ZM53.4536 43.3775C53.3536 43.3775 53.2551 43.3401 53.1796 43.2687L50.9719 41.1926C50.8109 41.0415 50.8031 40.7884 50.9546 40.6275C51.1063 40.466 51.3599 40.4593 51.5197 40.6099L53.0536 42.0526V37.8422C53.0536 37.6212 53.2328 37.4422 53.4536 37.4422C53.6744 37.4422 53.8536 37.6212 53.8536 37.8422V42.9775C53.8536 43.1369 53.7589 43.2812 53.6125 43.3447C53.5615 43.3667 53.5072 43.3775 53.4536 43.3775Z" fill="#252526"/>
<path d="M29.7283 35.4733C28.9694 35.4733 28.256 35.1779 27.719 34.641C27.1819 34.104 26.8867 33.3904 26.8862 32.6311C26.8862 31.8722 27.1821 31.1581 27.719 30.6211L30.9925 27.3477C31.1486 27.1914 31.4018 27.1914 31.5581 27.3477C31.7142 27.504 31.7142 27.7571 31.5581 27.9133L28.2846 31.1867C27.4882 31.9831 27.4882 33.2789 28.2846 34.0752C29.0805 34.8711 30.3768 34.8717 31.1726 34.0752L34.4466 30.8013C34.6029 30.645 34.856 30.645 35.0122 30.8013C35.1683 30.9576 35.1685 31.2108 35.0122 31.3669L31.7382 34.6408C31.2013 35.1778 30.4877 35.4731 29.7283 35.4731V35.4733Z" fill="url(#paint6_linear_120_523)"/>
<path d="M37.3912 28.8218C37.2886 28.8218 37.1866 28.7828 37.1083 28.7047C36.9522 28.5484 36.9522 28.2953 37.1083 28.1389L40.3824 24.865C41.1787 24.0687 41.1787 22.7733 40.3824 21.977C39.9965 21.5911 39.4838 21.3786 38.9381 21.3786C38.3928 21.3786 37.8797 21.5911 37.4944 21.9765L34.2203 25.2505C34.0642 25.4068 33.811 25.4068 33.6547 25.2505C33.4986 25.0941 33.4986 24.841 33.6547 24.6849L36.9288 21.4109C37.4653 20.874 38.1792 20.5786 38.9381 20.5786H38.9387C39.6976 20.5786 40.4115 20.8745 40.948 21.4114C41.485 21.9484 41.7803 22.662 41.7803 23.4209C41.7803 24.1802 41.485 24.8938 40.948 25.4308L37.6741 28.7047C37.596 28.7828 37.4939 28.8218 37.3912 28.8218Z" fill="url(#paint7_linear_120_523)"/>
<path d="M31.2939 25.3867C31.1911 25.3867 31.0891 25.3476 31.011 25.2694L29.3897 23.6481C29.2334 23.4918 29.2334 23.2387 29.3897 23.0825C29.5459 22.9264 29.799 22.9262 29.9553 23.0825L31.5766 24.7038C31.7329 24.8601 31.7329 25.1132 31.5766 25.2694C31.4985 25.3476 31.3964 25.3867 31.2937 25.3867H31.2939Z" fill="url(#paint8_linear_120_523)"/>
<path d="M32.4444 24.9076C32.2236 24.9076 32.0444 24.7285 32.0444 24.5076V22.2149C32.0444 21.9941 32.2236 21.8149 32.4444 21.8149C32.6654 21.8149 32.8444 21.9941 32.8444 22.2149V24.5076C32.8444 24.7285 32.6654 24.9076 32.4444 24.9076Z" fill="url(#paint9_linear_120_523)"/>
<path d="M30.8149 26.5373H28.5221C28.3013 26.5373 28.1221 26.3581 28.1221 26.1373C28.1221 25.9165 28.3013 25.7373 28.5221 25.7373H30.8149C31.0357 25.7373 31.2149 25.9165 31.2149 26.1373C31.2149 26.3581 31.0357 26.5373 30.8149 26.5373Z" fill="url(#paint10_linear_120_523)"/>
<path d="M38.9461 33.0389C38.8435 33.0389 38.7415 32.9999 38.6634 32.9218L37.0424 31.301C36.8863 31.1447 36.8863 30.8916 37.0424 30.7354C37.1987 30.5791 37.4519 30.5791 37.608 30.7354L39.229 32.3562C39.3851 32.5125 39.3851 32.7656 39.229 32.9218C39.1507 32.9999 39.0487 33.0389 38.9461 33.0389Z" fill="url(#paint11_linear_120_523)"/>
<path d="M36.1744 34.1893C35.9535 34.1893 35.7744 34.0101 35.7744 33.7893V31.4967C35.7744 31.2757 35.9535 31.0967 36.1744 31.0967C36.3952 31.0967 36.5744 31.2757 36.5744 31.4967V33.7893C36.5744 34.0101 36.3952 34.1893 36.1744 34.1893Z" fill="url(#paint12_linear_120_523)"/>
<path d="M40.0966 30.2663H37.8038C37.583 30.2663 37.4038 30.0873 37.4038 29.8663C37.4038 29.6455 37.583 29.4663 37.8038 29.4663H40.0966C40.3174 29.4663 40.4966 29.6455 40.4966 29.8663C40.4966 30.0873 40.3174 30.2663 40.0966 30.2663Z" fill="url(#paint13_linear_120_523)"/>
</g>
</g>
<defs>
<linearGradient id="paint0_linear_120_523" x1="1.26726" y1="47.4294" x2="1.35213" y2="48.2607" gradientUnits="userSpaceOnUse">
<stop stop-color="#FF4800"/>
<stop offset="0.5" stop-color="#DA54D8"/>
<stop offset="1" stop-color="#0092F4"/>
</linearGradient>
<linearGradient id="paint1_linear_120_523" x1="20.8339" y1="13.6141" x2="31.3191" y2="40.6174" gradientUnits="userSpaceOnUse">
<stop stop-color="#FF4800"/>
<stop offset="0.5" stop-color="#DA54D8"/>
<stop offset="1" stop-color="#0092F4"/>
</linearGradient>
<linearGradient id="paint2_linear_120_523" x1="14.8764" y1="41.2481" x2="15.8112" y2="48.9328" gradientUnits="userSpaceOnUse">
<stop stop-color="#FF4800"/>
<stop offset="0.5" stop-color="#DA54D8"/>
<stop offset="1" stop-color="#0092F4"/>
</linearGradient>
<linearGradient id="paint3_linear_120_523" x1="21.0322" y1="14.6135" x2="21.0411" y2="15.4533" gradientUnits="userSpaceOnUse">
<stop stop-color="#FF4800"/>
<stop offset="0.5" stop-color="#DA54D8"/>
<stop offset="1" stop-color="#0092F4"/>
</linearGradient>
<linearGradient id="paint4_linear_120_523" x1="16.7401" y1="18.0208" x2="18.188" y2="18.1009" gradientUnits="userSpaceOnUse">
<stop stop-color="#FF4800"/>
<stop offset="0.5" stop-color="#DA54D8"/>
<stop offset="1" stop-color="#0092F4"/>
</linearGradient>
<linearGradient id="paint5_linear_120_523" x1="9.05861" y1="47.4294" x2="9.09374" y2="48.2679" gradientUnits="userSpaceOnUse">
<stop stop-color="#FF4800"/>
<stop offset="0.5" stop-color="#DA54D8"/>
<stop offset="1" stop-color="#0092F4"/>
</linearGradient>
<linearGradient id="paint6_linear_120_523" x1="28.948" y1="27.7859" x2="32.6985" y2="34.2712" gradientUnits="userSpaceOnUse">
<stop stop-color="#FF4800"/>
<stop offset="0.5" stop-color="#DA54D8"/>
<stop offset="1" stop-color="#0092F4"/>
</linearGradient>
<linearGradient id="paint7_linear_120_523" x1="35.5992" y1="21.1341" x2="39.3501" y2="27.6194" gradientUnits="userSpaceOnUse">
<stop stop-color="#FF4800"/>
<stop offset="0.5" stop-color="#DA54D8"/>
<stop offset="1" stop-color="#0092F4"/>
</linearGradient>
<linearGradient id="paint8_linear_120_523" x1="29.8781" y1="23.1285" x2="30.9798" y2="25.0335" gradientUnits="userSpaceOnUse">
<stop stop-color="#FF4800"/>
<stop offset="0.5" stop-color="#DA54D8"/>
<stop offset="1" stop-color="#0092F4"/>
</linearGradient>
<linearGradient id="paint9_linear_120_523" x1="32.2445" y1="22.0233" x2="33.4547" y2="22.5647" gradientUnits="userSpaceOnUse">
<stop stop-color="#FF4800"/>
<stop offset="0.5" stop-color="#DA54D8"/>
<stop offset="1" stop-color="#0092F4"/>
</linearGradient>
<linearGradient id="paint10_linear_120_523" x1="28.8956" y1="25.7912" x2="29.0185" y2="26.6128" gradientUnits="userSpaceOnUse">
<stop stop-color="#FF4800"/>
<stop offset="0.5" stop-color="#DA54D8"/>
<stop offset="1" stop-color="#0092F4"/>
</linearGradient>
<linearGradient id="paint11_linear_120_523" x1="37.5308" y1="30.7813" x2="38.6322" y2="32.6859" gradientUnits="userSpaceOnUse">
<stop stop-color="#FF4800"/>
<stop offset="0.5" stop-color="#DA54D8"/>
<stop offset="1" stop-color="#0092F4"/>
</linearGradient>
<linearGradient id="paint12_linear_120_523" x1="35.9745" y1="31.3051" x2="37.1847" y2="31.8464" gradientUnits="userSpaceOnUse">
<stop stop-color="#FF4800"/>
<stop offset="0.5" stop-color="#DA54D8"/>
<stop offset="1" stop-color="#0092F4"/>
</linearGradient>
<linearGradient id="paint13_linear_120_523" x1="38.1774" y1="29.5202" x2="38.3003" y2="30.3418" gradientUnits="userSpaceOnUse">
<stop stop-color="#FF4800"/>
<stop offset="0.5" stop-color="#DA54D8"/>
<stop offset="1" stop-color="#0092F4"/>
</linearGradient>
<clipPath id="clip0_120_523">
<rect width="64" height="64" fill="white"/>
</clipPath>
</defs>
</svg>
