<svg width="64" height="64" viewBox="0 0 64 64" fill="none" xmlns="http://www.w3.org/2000/svg">
<path d="M24.0907 57.3542C24.0557 57.3542 24.0206 57.353 23.9857 57.348C11.0381 55.9392 1.27441 45.0417 1.27441 31.9992C1.27441 17.9392 12.7131 6.50049 26.7732 6.50049C40.1206 6.50049 51.2944 16.9192 52.2119 30.2204C52.2481 30.7492 51.8494 31.2079 51.3206 31.2442C50.8118 31.278 50.3344 30.8817 50.2969 30.3529C49.9168 24.8405 47.6306 19.8629 44.1119 16.0492L35.9645 24.1966C37.5632 25.9391 39.0057 27.7929 40.2795 29.7379C40.5707 30.1816 40.447 30.7766 40.0032 31.0666C39.557 31.3591 38.9645 31.2329 38.6745 30.7904C37.4669 28.9478 36.1008 27.1904 34.607 25.5542L20.3258 39.8354C21.0283 40.4767 21.7708 41.1104 22.532 41.7142C22.947 42.0429 23.0157 42.6467 22.6857 43.0629C22.357 43.4766 21.7557 43.5492 21.337 43.2166C20.5245 42.5717 19.7295 41.8929 18.967 41.1941L10.7957 49.3667C14.3807 52.6679 19.0119 54.8754 24.1932 55.4404C24.7207 55.4966 25.1007 55.9704 25.0432 56.4979C24.9908 56.9905 24.5744 57.3542 24.0907 57.3542ZM7.04439 19.1004C4.6106 22.8092 3.19441 27.2417 3.19441 31.9991C3.19441 38.1528 5.54436 43.7903 9.43697 48.0091L17.6095 39.8366C12.3545 34.1128 8.74449 27.1291 7.12324 19.5553C7.09073 19.404 7.06436 19.2517 7.04439 19.1004ZM13.0743 14.1391C11.9931 14.1391 10.9393 14.5717 10.1419 15.3704C9.13566 16.3766 8.70814 17.7903 9.00062 19.1529C10.5469 26.3767 13.9856 33.038 18.9668 38.478L33.2519 24.1942C27.8344 19.2255 21.1619 15.7779 13.9244 14.2291C13.6419 14.1691 13.3568 14.1391 13.0743 14.1391ZM13.8706 12.2716C14.0231 12.2929 14.1744 12.3191 14.3268 12.3516C21.9143 13.9754 28.9081 17.5941 34.6093 22.8366L42.7543 14.6916C38.533 10.7954 32.9006 8.42036 26.773 8.42036C22.0142 8.42036 17.5794 9.83783 13.8706 12.2716Z" fill="url(#paint0_linear_120_496)"/>
<path d="M45.7189 52.5142C42.5438 52.5142 39.9614 49.9317 39.9614 46.7579C39.9614 43.5842 42.544 41.0005 45.7189 41.0005C48.8938 41.0005 51.4752 43.583 51.4752 46.7579C51.4752 49.9328 48.8926 52.5142 45.7189 52.5142ZM45.7189 42.9205C43.6026 42.9205 41.8814 44.6417 41.8814 46.7579C41.8814 48.8729 43.6026 50.5942 45.7189 50.5942C47.8338 50.5942 49.5552 48.873 49.5552 46.7579C49.5552 44.6417 47.8339 42.9205 45.7189 42.9205Z" fill="#252526"/>
<path d="M60.4819 57.4994H30.9532C30.4231 57.4994 29.9932 57.0694 29.9932 56.5394C29.9932 56.0094 30.4231 55.5794 30.9532 55.5794H60.4819C60.6569 55.5794 60.8056 55.4593 60.8056 55.3169V38.1994C60.8056 38.057 60.6569 37.9356 60.4819 37.9356H30.9532C30.7782 37.9356 30.6295 38.0568 30.6295 38.1994V40.6545C30.6295 41.1845 30.1995 41.6145 29.6695 41.6145C29.1394 41.6145 28.7095 41.1845 28.7095 40.6545V38.1994C28.7095 36.9957 29.7157 36.0156 30.9532 36.0156H60.4819C61.7194 36.0156 62.7256 36.9956 62.7256 38.1994V55.3169C62.7256 56.5206 61.7194 57.4994 60.4819 57.4994Z" fill="#252526"/>
<path d="M34.8882 45.8756H29.6695C29.1394 45.8756 28.7095 45.4456 28.7095 44.9156C28.7095 44.3855 29.1394 43.9556 29.6695 43.9556H34.8882C35.4182 43.9556 35.8482 44.3855 35.8482 44.9156C35.8482 45.4456 35.4182 45.8756 34.8882 45.8756Z" fill="#252526"/>
<path d="M34.8879 50.1095H25.8492C25.3191 50.1095 24.8892 49.6795 24.8892 49.1495C24.8892 48.6194 25.3191 48.1895 25.8492 48.1895H34.8879C35.4179 48.1895 35.8479 48.6194 35.8479 49.1495C35.8479 49.6795 35.4179 50.1095 34.8879 50.1095Z" fill="#252526"/>
<defs>
<linearGradient id="paint0_linear_120_496" x1="14.0153" y1="9.92743" x2="37.1346" y2="49.9713" gradientUnits="userSpaceOnUse">
<stop stop-color="#FF4800"/>
<stop offset="0.5" stop-color="#DA54D8"/>
<stop offset="1" stop-color="#0092F4"/>
</linearGradient>
</defs>
</svg>
